<svg width="193" height="193" viewBox="0 0 193 193" fill="none" xmlns="http://www.w3.org/2000/svg">
<g filter="url(#filter0_d_209_98)">
<path d="M96.1 167.2C135.367 167.2 167.2 135.367 167.2 96.1C167.2 56.8326 135.367 25 96.1 25C56.8326 25 25 56.8326 25 96.1C25 135.367 56.8326 167.2 96.1 167.2Z" fill="white"/>
</g>
<path d="M106.1 102.1C105.9 102.1 105.7 102.1 105.5 102L96.7 98.6L87.9 102C87.7 102.1 87.5 102.1 87.4 102.1C87.1 102.1 86.8 102 86.5 101.8C86.1 101.5 85.8 101 85.9 100.5L86.4 91.1L80.4 83.8C80.1 83.4 80 82.9 80.1 82.4C80.3 81.9 80.7 81.5 81.2 81.4L90.3 79L95.5 71.1C95.8 70.7 96.3 70.4 96.8 70.4C97.3 70.4 97.8 70.6 98.1 71.1L103.3 79L112.4 81.4C112.9 81.5 113.3 81.9 113.5 82.4C113.7 82.9 113.6 83.4 113.2 83.8L107.2 91.1L107.7 100.5C107.7 101 107.5 101.5 107.1 101.8C106.7 102 106.4 102.1 106.1 102.1ZM96.7 95.4C96.9 95.4 97.1 95.4 97.3 95.5L104.5 98.2L104 90.6C104 90.2 104.1 89.8 104.3 89.5L109.1 83.6L101.7 81.6C101.3 81.5 101 81.3 100.8 81L96.6 74.6L92.5 81C92.3 81.3 92 81.5 91.6 81.6L84.2 83.6L89 89.5C89.2 89.8 89.4 90.2 89.3 90.6L89 98.2L96.2 95.5C96.3 95.4 96.5 95.4 96.7 95.4Z" fill="#4C8AB3"/>
<path d="M112.9 144.9C112.4 144.9 111.9 144.6 111.6 144.2L100.7 126C99.4001 126.6 97.9001 127.2 96.2001 127.2C94.6001 127.2 93.2001 126.7 92.1001 126.2L81.4001 144C81.1001 144.5 80.6001 144.7 80.1001 144.7C79.5001 144.7 79.0001 144.4 78.7001 143.9L70.9001 129.3L53.5001 128.8C53.0001 128.8 52.5001 128.5 52.2001 128C51.9001 127.5 52.0001 126.9 52.2001 126.5L62.8001 108.8C62.3001 108.3 61.9001 107.7 61.5001 107.2C60.3001 105.2 60.3001 102.9 60.2001 100.6C60.2001 99.2 60.1001 98 59.8001 96.9C59.5001 95.8 58.9001 94.6 58.2001 93.4C57.2001 91.5 56.1001 89.4 56.1001 87.1C56.1001 84.8 57.2001 82.8 58.2001 80.8C58.9001 79.6 59.5001 78.4 59.8001 77.3C60.1001 76.2 60.1001 74.9 60.2001 73.6C60.3001 71.4 60.3001 69.1 61.5001 67C62.6001 65 64.5001 63.9 66.4001 62.7C67.6001 62 68.7001 61.3 69.6001 60.4C70.5001 59.5 71.2001 58.4 71.9001 57.2C73.1001 55.3 74.3001 53.4 76.2001 52.3C78.2001 51.1 80.5001 51.1 82.8001 51C84.2001 51 85.4001 50.9 86.5001 50.6C87.6001 50.3 88.8001 49.7 90.0001 49C91.9001 48 94.0001 46.9 96.3001 46.9C98.6001 46.9 100.6 48 102.6 49C103.8 49.7 105 50.3 106.1 50.6C107.2 50.9 108.5 50.9 109.8 51C112 51.1 114.3 51.1 116.4 52.3C118.4 53.4 119.5 55.3 120.7 57.2C121.4 58.4 122.1 59.5 123 60.4C123.9 61.3 125 62 126.2 62.7C128.1 63.9 130 65.1 131.1 67C132.3 69 132.3 71.3 132.4 73.6C132.4 75 132.5 76.2 132.8 77.3C133.1 78.4 133.7 79.6 134.4 80.8C135.4 82.7 136.5 84.8 136.5 87.1C136.5 89.4 135.4 91.4 134.4 93.4C133.7 94.6 133.1 95.8 132.8 96.9C132.5 98 132.5 99.3 132.4 100.6C132.3 102.8 132.3 105.1 131.1 107.2C130.8 107.7 130.5 108.1 130.1 108.5L140.9 126.6C141.2 127.1 141.2 127.7 140.9 128.1C140.6 128.6 140.1 128.9 139.6 128.9L122.2 129.4L114.2 144C114 144.5 113.5 144.8 112.9 144.9ZM112.8 140.2L119.8 127.2C120.1 126.7 120.6 126.4 121.1 126.4L136.8 125.9L127.6 110.5C127.1 110.8 126.6 111.2 126.1 111.5C124.9 112.2 123.8 112.9 122.9 113.8C122 114.7 121.3 115.8 120.6 117C119.4 118.9 118.2 120.8 116.3 121.9C114.3 123.1 112 123.1 109.7 123.2C108.3 123.2 107.1 123.3 106 123.6C105.2 123.8 104.4 124.2 103.5 124.6L112.8 140.2ZM71.9001 126.3C72.4001 126.3 73.0001 126.6 73.2001 127.1L80.2001 140.1L89.4001 124.7C88.4001 124.2 87.5001 123.7 86.5001 123.5C85.4001 123.2 84.1001 123.2 82.8001 123.1C80.6001 123 78.3001 123 76.2001 121.8C74.3001 120.7 73.1001 118.8 71.9001 116.9C71.2001 115.7 70.5001 114.6 69.6001 113.7C68.7001 112.8 67.6001 112.1 66.4001 111.4C66.0001 111.1 65.6001 110.9 65.2001 110.6L56.1001 125.7L71.9001 126.3ZM96.2001 50.1C94.7001 50.1 93.1001 50.9 91.4001 51.8C90.1001 52.5 88.7001 53.2 87.2001 53.6C85.8001 54 84.2001 54 82.8001 54.1C80.9001 54.2 79.0001 54.2 77.7001 55C76.4001 55.7 75.5001 57.3 74.5001 58.9C73.7001 60.2 72.9001 61.5 71.8001 62.6C70.7001 63.7 69.4001 64.5 68.1001 65.3C66.5001 66.3 65.0001 67.2 64.2001 68.5C63.4001 69.9 63.4001 71.7 63.3001 73.6C63.3001 75.1 63.2001 76.6 62.8001 78C62.4001 79.5 61.7001 80.8 61.0001 82.1C60.1001 83.8 59.3001 85.4 59.3001 86.9C59.3001 88.4 60.1001 90 61.0001 91.7C61.7001 93 62.4001 94.4 62.8001 95.8C63.2001 97.2 63.2001 98.8 63.3001 100.2C63.4001 102.1 63.4001 104 64.2001 105.3C64.9001 106.6 66.5001 107.5 68.1001 108.5C69.4001 109.3 70.7001 110.1 71.8001 111.2C72.9001 112.3 73.7001 113.6 74.5001 114.9C75.5001 116.5 76.4001 118 77.7001 118.8C79.1001 119.6 80.9001 119.6 82.8001 119.7C84.3001 119.7 85.8001 119.8 87.2001 120.2C88.7001 120.6 90.0001 121.3 91.4001 122C93.1001 122.9 94.7001 123.7 96.2001 123.7C97.7001 123.7 99.3001 122.9 101 122C102.3 121.3 103.7 120.6 105.1 120.2C106.5 119.8 108.1 119.8 109.5 119.7C111.4 119.6 113.3 119.6 114.6 118.8C115.9 118.1 116.8 116.5 117.8 114.9C118.6 113.6 119.4 112.3 120.5 111.2C121.6 110.1 122.9 109.3 124.2 108.5C125.8 107.5 127.3 106.6 128.1 105.3C128.9 103.9 128.9 102.1 129 100.2C129 98.7 129.1 97.2 129.5 95.8C129.9 94.3 130.6 93 131.3 91.7C132.2 90 133 88.4 133 86.9C133 85.4 132.2 83.8 131.3 82.1C130.6 80.8 129.9 79.4 129.5 78C129.1 76.6 129.1 75 129 73.6C128.9 71.7 128.9 69.8 128.1 68.5C127.4 67.2 125.8 66.3 124.2 65.3C122.9 64.5 121.6 63.7 120.5 62.6C119.4 61.5 118.6 60.2 117.8 58.9C116.8 57.3 115.9 55.8 114.6 55C113.2 54.2 111.4 54.2 109.5 54.1C108 54.1 106.5 54 105.1 53.6C103.6 53.2 102.3 52.5 100.9 51.8C99.3001 50.9 97.7001 50.1 96.2001 50.1Z" fill="#4C8AB3"/>
<path d="M96.1998 116.5C88.3998 116.5 80.9998 113.4 75.3998 107.9C69.8998 102.4 66.7998 95 66.7998 87.1C66.7998 79.3 69.8998 71.9 75.3998 66.3C80.8998 60.8 88.2998 57.7 96.1998 57.7C104 57.7 111.4 60.8 117 66.3C122.5 71.8 125.6 79.2 125.6 87.1C125.6 94.9 122.5 102.3 117 107.9C111.4 113.4 104.1 116.5 96.1998 116.5ZM96.1998 60.8C89.1998 60.8 82.5998 63.5 77.5998 68.5C72.5998 73.5 69.8998 80.1 69.8998 87.1C69.8998 94.1 72.5998 100.7 77.5998 105.7C82.5998 110.7 89.1998 113.4 96.1998 113.4C103.2 113.4 109.8 110.7 114.8 105.7C119.8 100.7 122.5 94.1 122.5 87.1C122.5 80.1 119.8 73.5 114.8 68.5C109.8 63.6 103.2 60.8 96.1998 60.8Z" fill="#4C8AB3"/>
<defs>
<filter id="filter0_d_209_98" x="0" y="0" width="192.2" height="192.2" filterUnits="userSpaceOnUse" color-interpolation-filters="sRGB">
<feFlood flood-opacity="0" result="BackgroundImageFix"/>
<feColorMatrix in="SourceAlpha" type="matrix" values="0 0 0 0 0 0 0 0 0 0 0 0 0 0 0 0 0 0 127 0" result="hardAlpha"/>
<feOffset/>
<feGaussianBlur stdDeviation="12.5"/>
<feComposite in2="hardAlpha" operator="out"/>
<feColorMatrix type="matrix" values="0 0 0 0 0 0 0 0 0 0 0 0 0 0 0 0 0 0 0.33 0"/>
<feBlend mode="normal" in2="BackgroundImageFix" result="effect1_dropShadow_209_98"/>
<feBlend mode="normal" in="SourceGraphic" in2="effect1_dropShadow_209_98" result="shape"/>
</filter>
</defs>
</svg>
