<svg width="193" height="193" viewBox="0 0 193 193" fill="none" xmlns="http://www.w3.org/2000/svg">
<g filter="url(#filter0_d_225_4)">
<path d="M96.1 167.2C135.367 167.2 167.2 135.367 167.2 96.1C167.2 56.8326 135.367 25 96.1 25C56.8326 25 25 56.8326 25 96.1C25 135.367 56.8326 167.2 96.1 167.2Z" fill="#FCFCFC"/>
</g>
<path d="M84.4998 116.7C82.2998 116.7 80.2998 115.8 78.6998 114.3C77.1998 112.8 76.2998 110.7 76.2998 108.5V83.3C76.2998 81.1 77.1998 79.1 78.6998 77.5C80.1998 76 82.2998 75.1 84.4998 75.1H109.8C112 75.1 114 76 115.6 77.5C117.1 79 118 81.1 118 83.3V108.6C118 110.8 117.1 112.8 115.6 114.4C114.1 115.9 112 116.8 109.8 116.8H84.4998V116.7ZM84.4998 78.8C81.9998 78.8 79.9998 80.8 79.9998 83.3V108.6C79.9998 111.1 81.9998 113.1 84.4998 113.1H109.8C111 113.1 112.1 112.6 113 111.8C113.8 110.9 114.3 109.8 114.3 108.6V83.3C114.3 82.1 113.8 81 113 80.1C112.2 79.3 111 78.8 109.8 78.8H84.4998Z" fill="#4C8AB3"/>
<path d="M67.0996 115.2C66.0996 115.2 65.2996 114.4 65.2996 113.4V97.8H43.3996C42.3996 97.8 41.5996 97 41.5996 96C41.5996 95 42.3996 94.2 43.3996 94.2H65.2996V78.5C65.2996 77.5 66.0996 76.7 67.0996 76.7C67.5996 76.7 67.9996 76.9 68.3996 77.2C68.6996 77.5 68.8996 78 68.8996 78.5V113.3C68.8996 114.3 68.0996 115.2 67.0996 115.2Z" fill="#4C8AB3"/>
<path d="M97.0994 151.5C96.5994 151.5 96.1994 151.3 95.7994 151C95.4994 150.7 95.2994 150.2 95.2994 149.7V127.8H79.6994C78.6994 127.8 77.8994 127 77.8994 126C77.8994 125 78.6994 124.2 79.6994 124.2H114.499C115.499 124.2 116.299 125 116.299 126C116.299 127 115.499 127.8 114.499 127.8H98.9994V149.7C98.9994 150.2 98.7994 150.7 98.4994 151C98.0994 151.3 97.5994 151.5 97.0994 151.5Z" fill="#4C8AB3"/>
<path d="M127.199 115.2C126.199 115.2 125.399 114.4 125.399 113.4V78.5C125.399 77.5 126.199 76.7 127.199 76.7C128.199 76.7 128.999 77.5 128.999 78.5V94.1H150.899C151.399 94.1 151.799 94.3 152.199 94.6C152.499 94.9 152.699 95.4 152.699 95.9C152.699 96.4 152.499 96.8 152.199 97.2C151.899 97.5 151.399 97.7 150.899 97.7H128.999V113.3C128.999 114.3 128.199 115.2 127.199 115.2Z" fill="#4C8AB3"/>
<path d="M79.6994 67.7C78.6994 67.7 77.8994 66.9 77.8994 65.9C77.8994 64.9 78.6994 64.1 79.6994 64.1H95.2994V42.2C95.2994 41.2 96.0994 40.4 97.0994 40.4C97.5994 40.4 97.9994 40.6 98.3994 40.9C98.7994 41.2 98.9994 41.7 98.9994 42.2V64H114.599C115.599 64 116.399 64.8 116.399 65.8C116.399 66.8 115.599 67.6 114.599 67.6H79.6994V67.7Z" fill="#4C8AB3"/>
<defs>
<filter id="filter0_d_225_4" x="0" y="0" width="192.2" height="192.2" filterUnits="userSpaceOnUse" color-interpolation-filters="sRGB">
<feFlood flood-opacity="0" result="BackgroundImageFix"/>
<feColorMatrix in="SourceAlpha" type="matrix" values="0 0 0 0 0 0 0 0 0 0 0 0 0 0 0 0 0 0 127 0" result="hardAlpha"/>
<feOffset/>
<feGaussianBlur stdDeviation="12.5"/>
<feComposite in2="hardAlpha" operator="out"/>
<feColorMatrix type="matrix" values="0 0 0 0 0 0 0 0 0 0 0 0 0 0 0 0 0 0 0.33 0"/>
<feBlend mode="normal" in2="BackgroundImageFix" result="effect1_dropShadow_225_4"/>
<feBlend mode="normal" in="SourceGraphic" in2="effect1_dropShadow_225_4" result="shape"/>
</filter>
</defs>
</svg>
