<svg width="193" height="193" viewBox="0 0 193 193" fill="none" xmlns="http://www.w3.org/2000/svg">
<g filter="url(#filter0_d_209_97)">
<path d="M96.1 167.2C135.367 167.2 167.2 135.367 167.2 96.1C167.2 56.8326 135.367 25 96.1 25C56.8326 25 25 56.8326 25 96.1C25 135.367 56.8326 167.2 96.1 167.2Z" fill="white"/>
</g>
<path d="M98.3002 69.4C105.7 69.4 112.3 72.4 117.1 77.2C121.9 82 124.9 88.7 124.9 96C124.9 100.7 123.7 105.2 121.5 109C119.4 112.7 116.4 115.9 112.9 118.3V127.4C112.9 128.4 112.8 129.3 112.5 130.2C112 131.7 111.2 133.1 110 134.2C108.5 135.7 106.6 136.7 104.5 137C104.4 137.6 104.2 138.3 103.9 138.8C103.4 139.8 102.6 140.7 101.6 141.3C100.6 141.9 99.4002 142.2 98.3002 142.2C97.2002 142.2 96.0002 141.9 95.0002 141.3C94.0002 140.7 93.2002 139.8 92.7002 138.8C92.4002 138.2 92.2002 137.6 92.1002 137C90.0002 136.7 88.1002 135.7 86.6002 134.2L86.5002 134.1C85.4002 133 84.6002 131.6 84.1002 130.1C83.8002 129.2 83.7002 128.3 83.7002 127.3V118.2C80.1002 115.9 77.2002 112.7 75.1002 108.9C72.9002 105.1 71.7002 100.6 71.7002 95.9C71.7002 88.5 74.7002 81.9 79.5002 77.1L79.6002 77C84.3002 72.3 91.0002 69.4 98.3002 69.4ZM86.7002 128.3H109.8C109.8 128 109.9 127.7 109.9 127.4V125.1H86.7002V127.4C86.7002 127.7 86.7002 128 86.7002 128.3ZM108.7 131.3H87.9002C88.1002 131.6 88.4002 131.9 88.6002 132.2L88.7002 132.3C89.9002 133.5 91.7002 134.3 93.5002 134.3H103C104.9 134.3 106.6 133.5 107.8 132.3C108.2 132 108.4 131.6 108.7 131.3ZM75.9002 124.6C76.5002 124 77.4002 124 78.0002 124.6C78.6002 125.2 78.6002 126.1 78.0002 126.7L72.8002 131.9C72.2002 132.5 71.3002 132.5 70.7002 131.9L61.2002 122.4C60.6002 121.8 60.6002 120.9 61.2002 120.3L65.5002 116C64.2002 114.1 63.2002 112 62.3002 109.8V109.7C61.4002 107.6 60.8002 105.4 60.3002 103.2H54.2002C53.4002 103.2 52.7002 102.5 52.7002 101.7V88.2C52.7002 87.4 53.4002 86.7 54.2002 86.7H60.3002C60.8002 84.4 61.5002 82.2 62.4002 80.1C63.3002 77.9 64.4002 75.9 65.6002 73.9L61.3002 69.6C60.7002 69 60.7002 68.1 61.3002 67.5L70.8002 58C71.4002 57.4 72.3002 57.4 72.9002 58L77.2002 62.3C79.1002 61 81.2002 60 83.4002 59.1C85.5002 58.2 87.7002 57.5 90.0002 57V50.9C90.0002 50.1 90.7002 49.4 91.5002 49.4H105C105.8 49.4 106.5 50.1 106.5 50.9V57C108.8 57.5 111 58.2 113.1 59.1C115.2 60 117.3 61.1 119.2 62.3L123.5 58C124.1 57.4 125 57.4 125.6 58L135.1 67.5C135.7 68.1 135.7 69 135.1 69.6L130.8 73.9C132.1 75.8 133.1 77.9 134 80.1C134.9 82.2 135.6 84.4 136.1 86.7H142.2C143 86.7 143.7 87.4 143.7 88.2V101.7C143.7 102.5 143 103.2 142.2 103.2H136.1C135.6 105.5 134.9 107.7 134 109.8C133.1 112 132 114 130.8 116L135.1 120.3C135.7 120.9 135.7 121.8 135.1 122.4L125.6 131.9C125 132.5 124.1 132.5 123.5 131.9L118.3 126.7C117.7 126.1 117.7 125.2 118.3 124.6C118.9 124 119.8 124 120.4 124.6L124.5 128.7L131.9 121.3L127.8 117.2C127.3 116.7 127.2 115.9 127.6 115.3C129 113.2 130.2 111 131.2 108.7C132.1 106.4 132.9 104.1 133.3 101.6C133.4 100.8 134 100.2 134.8 100.2H140.6V89.7H134.8C134.1 89.7 133.5 89.2 133.3 88.5C132.8 86 132.1 83.6 131.2 81.3C130.2 79 129 76.8 127.6 74.7C127.2 74.1 127.2 73.3 127.7 72.7L131.8 68.6L124.4 61.2L120.3 65.3C119.8 65.8 119 65.9 118.4 65.5C116.3 64.1 114.1 62.9 111.8 61.9C109.5 61 107.2 60.2 104.7 59.8C103.9 59.7 103.3 59.1 103.3 58.3V52.5H92.9002V58.3C92.9002 59 92.4002 59.6 91.7002 59.8C89.2002 60.3 86.8002 61 84.5002 61.9C82.2002 62.9 80.0002 64.1 77.9002 65.5C77.3002 65.9 76.5002 65.9 75.9002 65.4L71.8002 61.3L64.4002 68.7L68.5002 72.8C69.0002 73.3 69.1002 74.1 68.7002 74.7C67.3002 76.8 66.1002 79 65.1002 81.3C64.2002 83.6 63.4002 85.9 63.0002 88.4C62.9002 89.2 62.3002 89.8 61.5002 89.8H55.7002V100.3H61.5002C62.2002 100.3 62.8002 100.8 63.0002 101.5C63.5002 104 64.2002 106.4 65.1002 108.7V108.8C66.1002 111.1 67.3002 113.3 68.7002 115.4C69.1002 116 69.1002 116.8 68.6002 117.4L64.5002 121.5L71.9002 128.9L75.9002 124.6ZM86.7002 122.1H109.9V119H86.7002V122.1ZM96.8002 116V107.6L86.1002 101.2C85.6002 100.9 85.4002 100.4 85.4002 99.9V91.3C85.4002 90.5 86.1002 89.8 86.9002 89.8H92.8002C93.3002 89.8 93.7002 90 93.9002 90.3L98.3002 94.7L102.8 90.2C103.1 89.9 103.5 89.8 103.9 89.8H109.8C110.6 89.8 111.3 90.5 111.3 91.3V100C111.3 100.8 110.6 101.5 109.8 101.5C109 101.5 108.3 100.8 108.3 100V92.9H104.5L99.4002 98C98.8002 98.6 97.9002 98.6 97.3002 98L92.2002 92.9H88.4002V99.2L99.0002 105.5C99.4002 105.8 99.7002 106.2 99.7002 106.8V116H111C114.3 113.9 117 111 119 107.6C120.9 104.2 122 100.3 122 96.1C122 89.6 119.4 83.7 115.1 79.4C110.8 75.1 104.9 72.5 98.4002 72.5C91.9002 72.5 86.0002 75.1 81.8002 79.3L81.7002 79.4C77.4002 83.7 74.8002 89.6 74.8002 96.1C74.8002 100.3 75.9002 104.2 77.8002 107.6C79.7002 111 82.5002 113.9 85.8002 116H96.8002ZM101.4 137.2H95.1002C95.1002 137.3 95.2002 137.5 95.3002 137.6C95.6002 138.1 96.0002 138.6 96.5002 138.9C97.0002 139.2 97.6002 139.4 98.3002 139.4C98.9002 139.4 99.5002 139.2 100.1 138.9C100.6 138.6 101 138.1 101.3 137.6C101.3 137.5 101.4 137.4 101.4 137.2Z" fill="#4C8AB3"/>
<defs>
<filter id="filter0_d_209_97" x="0" y="0" width="192.2" height="192.2" filterUnits="userSpaceOnUse" color-interpolation-filters="sRGB">
<feFlood flood-opacity="0" result="BackgroundImageFix"/>
<feColorMatrix in="SourceAlpha" type="matrix" values="0 0 0 0 0 0 0 0 0 0 0 0 0 0 0 0 0 0 127 0" result="hardAlpha"/>
<feOffset/>
<feGaussianBlur stdDeviation="12.5"/>
<feComposite in2="hardAlpha" operator="out"/>
<feColorMatrix type="matrix" values="0 0 0 0 0 0 0 0 0 0 0 0 0 0 0 0 0 0 0.33 0"/>
<feBlend mode="normal" in2="BackgroundImageFix" result="effect1_dropShadow_209_97"/>
<feBlend mode="normal" in="SourceGraphic" in2="effect1_dropShadow_209_97" result="shape"/>
</filter>
</defs>
</svg>
