<?xml version="1.0" encoding="utf-8"?>
<!-- Generator: Adobe Illustrator 24.0.3, SVG Export Plug-In . SVG Version: 6.00 Build 0)  -->
<svg version="1.1" id="Lager_1" xmlns="http://www.w3.org/2000/svg" xmlns:xlink="http://www.w3.org/1999/xlink" x="0px" y="0px"
	 viewBox="0 0 118.95 117.95" style="enable-background:new 0 0 118.95 117.95;" xml:space="preserve">
<style type="text/css">
	.st0{fill-rule:evenodd;clip-rule:evenodd;fill:#36F4E1;}
	.st1{fill:#1A1A1A;}
</style>
<circle class="st0" cx="59.48" cy="58.98" r="56.98"/>
<path class="st1" d="M28.47,89.5c-3.54,0-6.42-2.88-6.42-6.42V34.59c0-1.11,0.9-2.01,2.01-2.01h20.18v-2.4
	c0-3.54,2.88-6.42,6.42-6.42h17.63c3.54,0,6.42,2.88,6.42,6.42v2.4h20.17c1.2,0.01,1.94,0.77,2.02,2.03l0,48.47
	c0,3.54-2.88,6.42-6.42,6.42H28.47z M26.07,83.08c0,1.32,1.08,2.4,2.4,2.4h62.01c1.32,0,2.4-1.08,2.4-2.4V48.7l-0.55-0.09
	l-3.35,10.05c-0.87,2.62-3.32,4.39-6.09,4.39H70.3v2.4c0,1.11-0.9,2.01-2.01,2.01H50.66c-1.11,0-2.01-0.9-2.01-2.01v-2.4h-12.6
	c-2.77,0-5.21-1.76-6.09-4.39l-3.35-10.05l-0.55,0.09V83.08z M66.29,63.44v-4.8H52.67v4.8H66.29z M82.9,59.04
	c1.03,0,1.95-0.66,2.28-1.64l6.93-20.8H26.85l6.93,20.8c0.33,0.98,1.24,1.64,2.28,1.64h12.6v-2.4c0-1.11,0.9-2.01,2.01-2.01h17.63
	c1.11,0,2.01,0.9,2.01,2.01v2.4H82.9z M70.7,32.58v-2.4c0-1.32-1.08-2.4-2.4-2.4H50.66c-1.32,0-2.4,1.08-2.4,2.4v2.4H70.7z"/>
</svg>
