<svg width="48" height="50" viewBox="0 0 48 50" fill="none" xmlns="http://www.w3.org/2000/svg">
<g clip-path="url(#clip0_209_264)">
<path d="M0.19827 23.7C1.78505 11.4 12.4958 2.5 24.595 3.3L25.4875 3.4L25.8842 0L33.7189 6.2L24.595 10.2L25.0908 6.4L23.9999 6.3C13.4875 5.7 4.56191 13.4 3.17348 24C1.88422 35.2 9.71893 45.4 20.7272 46.9C31.0412 48.2 40.9586 40.9 42.9421 30.8L43.0412 29.8C43.2396 28.4 43.7355 28.2 44.8264 28.3C45.6198 28.4 46.314 29 46.2148 29.9V30C44.3305 42.5 32.7272 51.4 20.2313 49.8C7.53711 48.2 -1.38851 36.4 0.19827 23.7Z" fill="white"/>
<path d="M24.5951 37.7999L12.9918 24.1C12.496 23.5 12.496 22.5 13.1902 22C13.7852 21.5 14.7769 21.5 15.2728 22.2L24.496 33L45.3224 5.99995C45.8183 5.29995 46.81 5.19995 47.405 5.69995C48.0993 6.19995 48.1984 7.19995 47.7026 7.79995L24.5951 37.7999Z" fill="white"/>
</g>
<defs>
<clipPath id="clip0_209_264">
<rect width="48" height="50" fill="white"/>
</clipPath>
</defs>
</svg>
