<?xml version="1.0" encoding="utf-8"?>
<!-- Generator: Adobe Illustrator 24.0.3, SVG Export Plug-In . SVG Version: 6.00 Build 0)  -->
<svg version="1.1" id="Lager_1" xmlns="http://www.w3.org/2000/svg" xmlns:xlink="http://www.w3.org/1999/xlink" x="0px" y="0px"
	 viewBox="0 0 118.95 117.95" style="enable-background:new 0 0 118.95 117.95;" xml:space="preserve">
<style type="text/css">
	.st0{fill-rule:evenodd;clip-rule:evenodd;fill:#36F4E1;}
</style>
<circle class="st0" cx="59.64" cy="58.81" r="56.48"/>
<path d="M30,32v62.68h33.42v-9.43c3.76-0.29,6.73-3.45,6.73-7.28c0-3.83-2.97-6.99-6.73-7.28v-5.28h9.41v-3.53
	c0-1.74,1.41-3.15,3.15-3.15c1.74,0,3.15,1.41,3.15,3.15v3.53h13.56V32L30,32z M59.27,36.15v5.29c-3.74,0.31-6.68,3.46-6.68,7.27
	s2.95,6.96,6.68,7.27v5.29h-9.41v3.58c0,1.74-1.41,3.15-3.15,3.15s-3.15-1.41-3.15-3.15v-3.58h-9.41V36.15H59.27z M66,77.97
	c0,1.74-1.41,3.15-3.15,3.15h-3.58v9.41H34.15V65.41h5.28c0.29,3.76,3.45,6.73,7.28,6.73c3.83,0,6.99-2.97,7.28-6.73h5.28v9.41h3.58
	C64.58,74.82,66,76.23,66,77.97L66,77.97z M88.53,61.26h-5.29c-0.31-3.74-3.46-6.68-7.27-6.68c-3.82,0-6.96,2.95-7.27,6.68h-5.29
	v-9.41h-3.53c-1.74,0-3.15-1.41-3.15-3.15s1.41-3.15,3.15-3.15h3.53v-9.41h25.12L88.53,61.26z"/>
</svg>
