<?xml version="1.0" encoding="utf-8"?>
<!-- Generator: Adobe Illustrator 24.0.3, SVG Export Plug-In . SVG Version: 6.00 Build 0)  -->
<svg version="1.1" id="Lager_1" xmlns="http://www.w3.org/2000/svg" xmlns:xlink="http://www.w3.org/1999/xlink" x="0px" y="0px"
	 viewBox="0 0 118.95 117.95" style="enable-background:new 0 0 118.95 117.95;" xml:space="preserve">
<style type="text/css">
	.st0{fill-rule:evenodd;clip-rule:evenodd;fill:#36F4E1;}
</style>
<circle class="st0" cx="59.14" cy="58.81" r="56.48"/>
<g>
	<path d="M90.69,53.09h-6.15c-0.42-1.38-0.96-2.73-1.6-4.02l4.83-4.83c0.37-0.37,0.57-0.86,0.57-1.38c0-0.52-0.21-1.01-0.57-1.38
		l-8.59-8.59c-0.76-0.76-1.99-0.76-2.75,0l-4.67,4.67c-1.31-0.7-2.68-1.29-4.1-1.75v-6.63c0-1.08-0.87-1.95-1.95-1.95H53.56
		c-1.08,0-1.95,0.87-1.95,1.95v6.49c-1.48,0.46-2.92,1.05-4.3,1.77l-4.21-4.21c-0.76-0.76-1.99-0.76-2.75,0l-8.59,8.59
		c-0.76,0.76-0.76,1.99,0,2.75l4.24,4.24c-0.7,1.37-1.28,2.8-1.73,4.27h-6.11c-1.08,0-1.95,0.87-1.95,1.95v12.14
		c0,1.08,0.87,1.95,1.95,1.95h6.33c0.46,1.38,1.03,2.71,1.72,3.99l-4.52,4.52c-0.37,0.37-0.57,0.86-0.57,1.38
		c0,0.52,0.21,1.01,0.57,1.38l8.59,8.59c0.76,0.76,1.99,0.76,2.75,0l4.67-4.67c1.18,0.59,2.41,1.09,3.67,1.49v5.88
		c0,1.08,0.87,1.95,1.95,1.95h12.14c1.08,0,1.95-0.87,1.95-1.95v-5.86c1.36-0.43,2.69-0.98,3.96-1.64l4.84,4.84
		c0.76,0.76,1.99,0.76,2.75,0l8.59-8.59c0.37-0.37,0.57-0.86,0.57-1.38c0-0.52-0.21-1.01-0.57-1.38l-4.81-4.81
		c0.63-1.2,1.16-2.46,1.59-3.74h6.36c1.08,0,1.95-0.87,1.95-1.95V55.04C92.64,53.96,91.77,53.09,90.69,53.09L90.69,53.09z
		 M88.74,65.23h-5.86c-0.88,0-1.65,0.59-1.88,1.44c-0.53,1.94-1.32,3.81-2.35,5.54c-0.46,0.77-0.33,1.74,0.3,2.37l4.47,4.47
		l-5.83,5.83l-4.5-4.5c-0.63-0.63-1.6-0.75-2.36-0.3c-1.8,1.06-3.74,1.86-5.75,2.37c-0.86,0.22-1.46,1-1.46,1.89v5.38h-8.25v-5.39
		c0-0.89-0.6-1.66-1.46-1.89c-1.92-0.49-3.76-1.25-5.49-2.23c-0.76-0.44-1.72-0.31-2.34,0.31l-4.32,4.32l-5.83-5.83l4.19-4.19
		c0.64-0.64,0.75-1.62,0.28-2.39c-1.1-1.79-1.93-3.73-2.48-5.76c-0.23-0.85-1-1.44-1.88-1.44h-5.82v-8.25h5.65
		c0.9,0,1.68-0.62,1.89-1.49c0.51-2.12,1.33-4.15,2.44-6.03c0.45-0.76,0.32-1.74-0.3-2.36L35.9,43.2l5.83-5.83l3.87,3.87
		c0.63,0.63,1.61,0.75,2.37,0.3c1.89-1.12,3.92-1.96,6.05-2.49c0.87-0.21,1.48-0.99,1.48-1.89v-6.02h8.25v6.14
		c0,0.88,0.59,1.65,1.44,1.88c2.06,0.55,4.03,1.4,5.86,2.51c0.77,0.47,1.76,0.35,2.39-0.28l4.35-4.35l5.83,5.83l-4.47,4.47
		c-0.62,0.62-0.75,1.58-0.31,2.34c1.04,1.82,1.82,3.78,2.31,5.82c0.21,0.87,0.99,1.49,1.89,1.49h5.69L88.74,65.23z"/>
	<path d="M44.7,57.91c0.4,0.63,1.25,1.06,2.11,0.83l3.45-0.87c1.04-0.26,1.67-1.32,1.41-2.36c-0.23-0.9-1.04-1.49-1.92-1.47
		c2.11-3.14,5.69-5.14,9.62-5.14c5.05,0,9.47,3.22,11.02,8.02c0.33,1.02,1.43,1.59,2.45,1.26c1.02-0.33,1.59-1.43,1.26-2.45
		C72.03,49.31,66.11,45,59.37,45C53.78,45,48.72,48.03,46,52.7c-0.61-0.77-1.72-0.97-2.57-0.44c-0.91,0.58-1.18,1.78-0.6,2.69
		l1.87,2.95C44.7,57.9,44.7,57.9,44.7,57.91z"/>
	<path d="M74.18,62.99c-0.4-0.64-1.23-1.12-2.14-0.87l-3.45,0.87c-1.04,0.26-1.67,1.32-1.41,2.36c0.22,0.88,1.02,1.47,1.89,1.47
		c0.01,0,0.02,0,0.04,0c-2.11,3.14-5.69,5.14-9.62,5.14c-5.05,0-9.47-3.22-11.02-8.02c-0.33-1.02-1.43-1.59-2.45-1.26
		c-1.02,0.33-1.59,1.43-1.26,2.45c2.06,6.42,7.98,10.73,14.72,10.73c5.58,0,10.65-3.03,13.37-7.69c0.61,0.77,1.72,0.97,2.57,0.44
		c0.91-0.58,1.18-1.78,0.6-2.69L74.18,62.99z"/>
</g>
</svg>
