<svg width="52" height="48" viewBox="0 0 52 48" fill="none" xmlns="http://www.w3.org/2000/svg">
<g clip-path="url(#clip0_209_172)">
<path d="M43.4118 20.9926V40.688C43.4118 42.6929 41.7647 44.344 39.7647 44.344H7.17647C5.17647 44.344 3.52941 42.6929 3.52941 40.688V8.01966C3.52941 6.01475 5.17647 4.36364 7.17647 4.36364H39.7647C40 4.36364 40.1176 4.36364 40.3529 4.48158L42.5882 1.53317C41.7647 1.17937 40.7059 0.943494 39.7647 0.943494H7.17647C3.17647 0.825558 0 4.12777 0 8.01966V40.688C0 44.6978 3.17647 47.8821 7.17647 47.8821H39.7647C43.7647 47.8821 46.9412 44.6978 46.9412 40.688V16.2752L43.4118 20.9926Z" fill="white"/>
<path d="M24.353 38.0934L10.5883 22.0541C10.0001 21.3465 10.0001 20.1672 10.8236 19.5775C11.5295 18.9878 12.706 18.9878 13.2942 19.8133L24.2354 32.6684L48.9412 0.82563C49.5295 7.74041e-05 50.706 -0.117859 51.4118 0.471822C52.2354 1.0615 52.353 2.24086 51.7648 2.94848L24.353 38.0934Z" fill="white"/>
</g>
<defs>
<clipPath id="clip0_209_172">
<rect width="52" height="48" fill="white"/>
</clipPath>
</defs>
</svg>
