<svg width="174" height="41" viewBox="0 0 174 41" fill="none" xmlns="http://www.w3.org/2000/svg">
<g clip-path="url(#clip0_209_5)">
<path d="M39.4004 29.6L39.7004 27.2V12.1H43.6004V26.8H55.7004L56.9004 29.3C56.9004 29.4 56.6004 29.5 56.1004 29.5C55.6004 29.6 54.7004 29.6 53.4004 29.6H39.4004Z" fill="white"/>
<path d="M62.1006 29.6V12.1H80.4006V15H66.0006V19.1H77.0006V22.1H66.0006V26.8H80.5006L81.7006 29.3C81.7006 29.4 81.4006 29.5 80.9006 29.5C80.4006 29.6 79.5006 29.6 78.2006 29.6H62.1006Z" fill="white"/>
<path d="M87.1006 29.6V12.1H91.0006V29.6H87.1006Z" fill="white"/>
<path d="M117.601 29.9C116.601 29.9 115.801 29.7 115.101 29.3C114.401 28.9 113.701 28.4 113.001 27.7C112.301 26.9 111.401 26 110.301 25C109.801 24.5 109.301 24.1 108.801 23.7C108.301 23.4 107.701 23.1 107.101 22.9C106.501 22.7 105.701 22.6 104.701 22.6H103.301V29.6H99.4006V14.5L99.1006 12.1H103.301V19.7H104.901C105.301 19.7 105.601 19.7 105.901 19.6C106.201 19.5 106.401 19.3 106.601 19.1C107.101 18.5 107.801 17.8 108.501 17C109.201 16.2 109.901 15.3 110.601 14.4C111.301 13.5 111.901 12.7 112.301 12.1H117.101L115.901 13.9C115.401 14.5 114.801 15.1 114.101 15.8C113.501 16.5 112.901 17.1 112.301 17.8C111.701 18.4 111.101 19 110.701 19.5C110.201 20 109.801 20.3 109.601 20.6C110.101 20.8 110.601 21 111.101 21.3C111.501 21.6 112.101 22 112.701 22.5C113.201 22.9 113.701 23.3 114.101 23.7C114.601 24.1 115.101 24.6 115.701 25.2C116.401 25.8 117.001 26.3 117.601 26.6C118.201 26.9 118.701 27.1 119.101 27.2C119.501 27.3 119.801 27.3 119.901 27.3L119.301 29.7C119.201 29.8 119.101 29.8 118.801 29.9C118.601 29.9 118.101 29.9 117.601 29.9Z" fill="white"/>
<path d="M128.601 29.9C126.801 29.9 125.601 29.4 124.901 28.4C124.201 27.4 123.801 26.1 123.801 24.5V12.1H127.701V24.7C127.701 25.6 127.901 26.3 128.401 26.6C128.801 26.9 129.401 27.1 130.101 27.1H136.301C136.901 27.1 137.501 26.9 137.901 26.6C138.401 26.3 138.601 25.7 138.601 24.7V12.1H142.501V24.6C142.501 25.7 142.401 26.6 142.101 27.4C141.801 28.2 141.301 28.8 140.601 29.3C139.901 29.7 139.001 30 137.801 30H128.601V29.9Z" fill="white"/>
<path d="M170.801 32.4C170.001 32.4 169.201 32.3 168.501 32C167.701 31.8 166.901 31.1 165.901 30.2L163.801 28.1C162.901 27.2 159.301 24 158.301 23.6C157.301 23.2 156.001 23 154.401 23H153.501V29.7H149.601V14.5L149.301 12.1H162.301C163.601 12.1 164.501 12.3 165.201 12.6C165.901 12.9 166.401 13.4 166.801 13.9C167.101 14.4 167.401 15 167.501 15.6C167.601 16.2 167.601 16.8 167.601 17.4V18C167.601 18.4 167.501 18.9 167.401 19.5C167.301 20 167.101 20.6 166.701 21.1C166.401 21.6 165.901 22.1 165.301 22.4C164.701 22.8 163.901 23 162.901 23C163.201 23.1 163.501 23.4 163.901 23.6C164.301 23.9 164.701 24.2 165.101 24.5C165.501 24.8 168.601 27.6 168.901 27.9C169.301 28.2 169.501 28.4 169.701 28.5C170.401 28.9 171.001 29.2 171.601 29.4C172.101 29.6 172.601 29.6 172.901 29.7C173.301 29.7 173.501 29.7 173.501 29.7L172.901 32.1C172.701 32.2 172.401 32.2 172.001 32.3C171.801 32.4 171.301 32.4 170.801 32.4ZM157.901 20.2C158.601 20.2 159.301 20.2 159.901 20.2C160.501 20.2 161.001 20.1 161.501 20.1C162.401 20 163.001 19.8 163.301 19.4C163.601 19 163.801 18.5 163.801 17.9V17.2C163.801 16.6 163.601 16 163.301 15.6C163.001 15.2 162.401 14.9 161.501 14.9H153.501V20.1C154.401 20.2 155.201 20.2 155.901 20.2C156.601 20.2 157.301 20.2 157.901 20.2Z" fill="white"/>
<path d="M14.9 23.1H10.5V16.5H14.9C20.7 16.5 25.3 21.2 25.3 26.9V34.1H18.8V27C18.8 24.8 17 23.1 14.9 23.1Z" fill="#4C8AB3"/>
<path d="M10.5 40.8C4.7 40.8 0 36.1 0 30.3V6.60001H6.6V30.4C6.6 32.5 8.4 34.3 10.5 34.3H18.8V40.9H10.5" fill="#4C8AB3"/>
<path d="M14.8996 0C20.6996 0 25.2996 4.7 25.2996 10.4V16.5H18.7996V10.4C18.7996 8.3 16.9996 6.5 14.8996 6.5H6.59961V0H14.8996Z" fill="#4C8AB3"/>
</g>
<defs>
<clipPath id="clip0_209_5">
<rect width="173.7" height="40.8" fill="white"/>
</clipPath>
</defs>
</svg>
