<svg width="182" height="43" viewBox="0 0 182 43" fill="none" xmlns="http://www.w3.org/2000/svg">
<g clip-path="url(#clip0_209_222)">
<path d="M41.0996 30.9001L41.3996 28.4001V12.6001H45.3996V27.9001H58.0996L59.2996 30.5001C59.2996 30.6001 58.9996 30.7001 58.4996 30.7001C57.8996 30.8001 56.9996 30.8001 55.6996 30.8001H41.0996V30.9001Z" fill="white"/>
<path d="M64.7998 30.9001V12.6001H83.7998V15.6001H68.7998V19.9001H80.1998V23.0001H68.7998V27.9001H83.8998L85.0998 30.5001C85.0998 30.6001 84.7998 30.7001 84.2998 30.7001C83.6998 30.8001 82.7998 30.8001 81.4998 30.8001H64.7998V30.9001Z" fill="white"/>
<path d="M90.8994 30.9001V12.6001H94.8994V30.9001H90.8994Z" fill="white"/>
<path d="M122.7 31.2001C121.7 31.2001 120.8 31.0001 120.1 30.6001C119.4 30.2001 118.6 29.6001 117.9 28.9001C117.1 28.1001 116.2 27.1001 115.1 26.0001C114.6 25.5001 114.1 25.0001 113.5 24.7001C113 24.3001 112.4 24.1001 111.7 23.9001C111 23.7001 110.2 23.6001 109.2 23.6001H107.8V30.9001H103.8V15.1001L103.5 12.6001H107.8V20.6001H109.5C109.9 20.6001 110.2 20.5001 110.5 20.4001C110.8 20.3001 111 20.1001 111.2 19.9001C111.8 19.3001 112.4 18.6001 113.2 17.7001C113.9 16.8001 114.7 15.9001 115.4 15.0001C116.1 14.1001 116.7 13.3001 117.2 12.6001H122.2L120.9 14.5001C120.3 15.1001 119.7 15.8001 119.1 16.5001C118.4 17.2001 117.8 17.9001 117.2 18.6001C116.6 19.3001 116 19.9001 115.5 20.4001C115 20.9001 114.6 21.3001 114.4 21.5001C115 21.7001 115.5 21.9001 115.9 22.2001C116.4 22.5001 116.9 22.9001 117.6 23.5001C118.1 23.9001 118.6 24.3001 119.1 24.8001C119.6 25.2001 120.1 25.8001 120.8 26.4001C121.5 27.1001 122.2 27.6001 122.8 27.9001C123.4 28.2001 124 28.4001 124.4 28.5001C124.8 28.6001 125.1 28.6001 125.2 28.6001L124.6 31.1001C124.5 31.2001 124.4 31.2001 124 31.3001C123.7 31.2001 123.2 31.2001 122.7 31.2001Z" fill="white"/>
<path d="M134.199 31.2001C132.299 31.2001 130.999 30.7001 130.299 29.7001C129.599 28.7001 129.199 27.3001 129.199 25.7001V12.7001H133.199V25.9001C133.199 26.9001 133.399 27.5001 133.899 27.9001C134.399 28.2001 134.999 28.4001 135.599 28.4001H142.099C142.799 28.4001 143.299 28.2001 143.799 27.9001C144.299 27.6001 144.499 26.9001 144.499 26.0001V12.6001H148.499V25.6001C148.499 26.7001 148.299 27.7001 147.999 28.5001C147.699 29.3001 147.199 30.0001 146.499 30.4001C145.799 30.9001 144.799 31.1001 143.499 31.1001H134.199V31.2001Z" fill="white"/>
<path d="M178.199 33.8001C177.399 33.8001 176.599 33.7001 175.799 33.4001C174.999 33.1001 174.099 32.5001 173.099 31.5001L170.899 29.3001C169.999 28.4001 166.199 25.1001 165.099 24.6001C163.999 24.2001 162.699 23.9001 161.099 23.9001H160.199V30.8001H156.199V15.1001L155.899 12.6001H169.499C170.799 12.6001 171.799 12.8001 172.599 13.1001C173.299 13.5001 173.899 13.9001 174.299 14.5001C174.699 15.1001 174.899 15.7001 174.999 16.3001C175.099 16.9001 175.199 17.6001 175.199 18.1001V18.7001C175.199 19.2001 175.099 19.7001 174.999 20.2001C174.899 20.8001 174.599 21.3001 174.299 21.8001C173.999 22.3001 173.499 22.8001 172.799 23.2001C172.199 23.6001 171.299 23.8001 170.299 23.9001C170.599 24.0001 170.899 24.3001 171.299 24.6001C171.699 24.9001 172.099 25.2001 172.599 25.6001C172.999 26.0001 176.199 28.9001 176.599 29.2001C176.999 29.5001 177.299 29.7001 177.499 29.8001C178.199 30.2001 178.899 30.5001 179.499 30.7001C180.099 30.9001 180.499 31.0001 180.899 31.0001C181.299 31.0001 181.499 31.0001 181.499 31.0001L180.899 33.5001C180.699 33.6001 180.399 33.6001 179.999 33.7001C179.199 33.8001 178.699 33.8001 178.199 33.8001ZM164.699 21.1001C165.499 21.1001 166.199 21.1001 166.799 21.1001C167.399 21.1001 167.999 21.0001 168.499 21.0001C169.399 20.9001 169.999 20.6001 170.399 20.2001C170.799 19.8001 170.899 19.3001 170.899 18.6001V17.9001C170.899 17.2001 170.699 16.7001 170.399 16.2001C170.099 15.7001 169.399 15.5001 168.499 15.5001H160.099V21.0001C160.999 21.1001 161.799 21.1001 162.599 21.1001C163.399 21.1001 164.099 21.1001 164.699 21.1001Z" fill="white"/>
<path d="M15.6 24.0998H11V17.2998H15.6C21.6 17.2998 26.5 22.1998 26.5 28.1998V35.6998H19.7V28.1998C19.6 25.8998 17.8 24.0998 15.6 24.0998Z" fill="white"/>
<path d="M10.9 42.5999C4.9 42.5999 0 37.6999 0 31.6999V6.8999H6.9V31.6999C6.9 33.8999 8.7 35.6999 11 35.6999H19.7V42.5999H10.9Z" fill="white"/>
<path d="M15.6004 0C21.6004 0 26.5004 4.9 26.5004 10.9V17.3H19.7004V10.9C19.7004 8.7 17.9004 6.9 15.6004 6.9H6.90039V0H15.6004Z" fill="white"/>
</g>
<defs>
<clipPath id="clip0_209_222">
<rect width="181.2" height="42.6" fill="white"/>
</clipPath>
</defs>
</svg>
