<?xml version="1.0" encoding="utf-8"?>
<!-- Generator: Adobe Illustrator 24.0.3, SVG Export Plug-In . SVG Version: 6.00 Build 0)  -->
<svg version="1.1" id="Lager_1" xmlns="http://www.w3.org/2000/svg" xmlns:xlink="http://www.w3.org/1999/xlink" x="0px" y="0px"
	 viewBox="0 0 44.78 40.78" style="enable-background:new 0 0 44.78 40.78;" xml:space="preserve">
<style type="text/css">
	.st0{fill-rule:evenodd;clip-rule:evenodd;fill:#B3B3B3;}
	.st1{fill-rule:evenodd;clip-rule:evenodd;fill:#E6E6E6;}
	.st2{fill:#E6E6E6;}
</style>
<g id="g5891_2_">
	<path id="background_2_" class="st0" d="M37.28,9.29c0-2.09-1.7-3.79-3.79-3.79H10.79C8.7,5.5,7,7.2,7,9.29V32
		c0,2.09,1.7,3.79,3.79,3.79H33.5c2.09,0,3.79-1.7,3.79-3.79V9.29z"/>
	<g id="shapes_2_">
		<rect id="rect11_2_" x="10.61" y="16.07" class="st1" width="5.07" height="15.26"/>
		<path id="path13-0_2_" class="st2" d="M13.18,8.71c-1.74,0-2.87,1.14-2.87,2.64c0,1.46,1.1,2.64,2.8,2.64h0.03
			c1.77,0,2.87-1.17,2.87-2.64C15.98,9.85,14.92,8.71,13.18,8.71z"/>
		<path id="path15_2_" class="st2" d="M28.13,15.71c-2.69,0-3.9,1.48-4.57,2.52v-2.16h-5.07c0.07,1.43,0,15.26,0,15.26h5.07V22.8
			c0-0.46,0.03-0.91,0.17-1.24c0.37-0.91,1.2-1.85,2.6-1.85c1.83,0,2.57,1.4,2.57,3.45v8.16h5.07v-8.75
			C33.97,17.89,31.47,15.71,28.13,15.71z"/>
	</g>
</g>
</svg>
