<svg width="91" height="91" viewBox="0 0 91 91" fill="none" xmlns="http://www.w3.org/2000/svg">
<g clip-path="url(#clip0_209_157)">
<path d="M45.4004 79.5C37.0004 79.5 29.1004 76.2 23.1004 70.3C17.1004 64.3 13.9004 56.4 13.9004 48C13.9004 39.6 17.2004 31.7 23.1004 25.7C29.1004 19.7 37.0004 16.5 45.4004 16.5C53.8004 16.5 61.7004 19.8 67.7004 25.7C73.7004 31.7 76.9004 39.6 76.9004 48C76.9004 56.4 73.6004 64.3 67.7004 70.3C61.7004 76.3 53.8004 79.5 45.4004 79.5ZM43.3004 61.4C39.8004 61.6 36.5004 62.5 33.3004 63.9L32.5004 64.3L32.8004 65.1C33.5004 67 34.8004 69.7 36.7004 72.2C38.6004 74.7 40.8004 76.3 43.1004 77L43.4004 77.1C43.9004 77.2 44.3004 76.9 44.3004 76.4V61.3L43.3004 61.4ZM46.5004 76.4C46.5004 76.9 47.0004 77.2 47.4004 77.1L47.7004 77C50.0004 76.3 52.2004 74.7 54.1004 72.2C56.0004 69.8 57.2004 67 58.0004 65.1L58.3004 64.3L57.5004 63.9C54.4004 62.5 51.0004 61.6 47.5004 61.4L46.5004 61.3V76.4ZM59.9004 66.4C58.8004 69.1 57.5004 71.4 56.0004 73.4L55.5004 74.1C55.0004 74.7 55.7004 75.5 56.4004 75.2L57.2004 74.8C60.0004 73.6 62.5004 72 64.8004 70L65.0004 69.8C65.3004 69.5 65.3004 69 65.0004 68.7L64.8004 68.6C63.7004 67.6 62.5004 66.7 61.3004 65.9L61.1004 65.8C60.7004 65.5 60.2004 65.7 60.0004 66.1L59.9004 66.4ZM29.6004 65.9C28.4004 66.7 27.2004 67.6 26.1004 68.6L25.9004 68.7C25.6004 69 25.6004 69.5 25.9004 69.8L26.1004 70C28.4004 72 30.9004 73.6 33.7004 74.8L34.5004 75.2C35.2004 75.5 35.8004 74.7 35.4004 74.1L34.9004 73.4C33.4004 71.4 32.1004 69.1 31.0004 66.4L30.9004 66.1C30.7004 65.7 30.2004 65.5 29.8004 65.8L29.6004 65.9ZM63.2004 50.1C63.0004 54.5 62.4004 58.7 61.3004 62.5L61.0004 63.2L61.6004 63.6C63.3004 64.6 64.8004 65.8 66.3004 67.1L67.0004 67.8L67.5004 67.2C71.6004 62.4 74.1004 56.3 74.6004 50C74.6004 49.6 74.3004 49.2 73.9004 49.2H63.2004V50.1ZM16.2004 49.9C16.7004 56.3 19.1004 62.3 23.3004 67.1L23.8004 67.7L24.5004 67C26.0004 65.7 27.5004 64.5 29.2004 63.5L29.8004 63.1L29.6004 62.4C28.5004 58.5 27.8004 54.3 27.7004 50V49.1H16.9004C16.5004 49.1 16.2004 49.5 16.2004 49.9ZM29.9004 50.1C30.0004 53.9 30.6004 57.6 31.5004 61L31.6004 61.3C31.7004 61.7 32.2004 62 32.6004 61.8L32.8004 61.7C36.1004 60.2 39.7004 59.4 43.4004 59.1L44.3004 59V49.8C44.3004 49.4 44.0004 49.1 43.6004 49.1H29.9004V50.1ZM46.5004 59.1L47.4004 59.2C51.1004 59.4 54.7004 60.3 58.0004 61.8L58.2004 61.9C58.6004 62.1 59.1004 61.9 59.2004 61.4L59.3004 61.1C60.2004 57.7 60.8004 54 60.9004 50.2V49.2H47.3004C46.9004 49.2 46.6004 49.5 46.6004 49.9V59.1H46.5004ZM66.4004 29C64.9004 30.3 63.4004 31.5 61.7004 32.5L61.0004 32.8L61.2004 33.5C62.3004 37.4 63.0004 41.6 63.1004 45.9V46.8H73.8004C74.2004 46.8 74.6004 46.4 74.5004 46C74.0004 39.6 71.6004 33.6 67.4004 28.8L66.9004 28.2L66.4004 29ZM58.0004 34.3C54.7004 35.8 51.1004 36.6 47.4004 36.9L46.5004 37V46.2C46.5004 46.6 46.8004 46.9 47.2004 46.9H61.0004V45.9C60.9004 42.1 60.3004 38.4 59.4004 35L59.3004 34.7C59.2004 34.3 58.7004 34 58.3004 34.2L58.0004 34.3ZM31.5004 35C30.6004 38.4 30.0004 42.1 29.9004 45.9V46.9H43.6004C44.0004 46.9 44.3004 46.6 44.3004 46.2V37L43.4004 36.9C39.7004 36.7 36.1004 35.8 32.8004 34.3L32.6004 34.2C32.2004 34 31.7004 34.2 31.6004 34.7L31.5004 35ZM23.2004 28.9C19.1004 33.7 16.6004 39.8 16.1004 46.1C16.1004 46.5 16.4004 46.9 16.8004 46.9H27.5004V46C27.7004 41.6 28.3004 37.4 29.4004 33.6L29.6004 32.9L29.0004 32.5C27.3004 31.5 25.8004 30.3 24.3004 29L23.6004 28.3L23.2004 28.9ZM43.1004 19.1C40.8004 19.8 38.6004 21.4 36.7004 23.9C34.8004 26.3 33.6004 29.1 32.8004 31L32.5004 31.8L33.3004 32.2C36.4004 33.6 39.8004 34.5 43.3004 34.7L44.3004 34.8V19.7C44.3004 19.2 43.8004 18.9 43.4004 19L43.1004 19.1ZM46.5004 34.7L47.5004 34.6C51.0004 34.4 54.3004 33.5 57.5004 32.1L58.3004 31.7L58.0004 30.9C57.3004 29 56.0004 26.3 54.1004 23.8C52.2004 21.3 50.0004 19.7 47.7004 19H47.5004C47.0004 18.9 46.6004 19.2 46.6004 19.7V34.7H46.5004ZM56.0004 22.6C57.5004 24.6 58.8004 26.9 59.9004 29.6L60.0004 29.9C60.2004 30.3 60.7004 30.5 61.1004 30.2L61.3004 30.1C62.5004 29.3 63.7004 28.4 64.8004 27.4L65.0004 27.3C65.3004 27 65.3004 26.5 65.0004 26.2L64.8004 26C62.5004 24 60.0004 22.4 57.2004 21.2L56.4004 20.8C55.7004 20.5 55.1004 21.3 55.5004 21.9L56.0004 22.6ZM33.7004 21.2C30.9004 22.4 28.4004 24 26.1004 26L25.9004 26.2C25.6004 26.5 25.6004 27 25.9004 27.3L26.1004 27.4C27.2004 28.4 28.4004 29.3 29.6004 30.1L29.8004 30.2C30.2004 30.5 30.7004 30.3 30.9004 29.9L31.0004 29.6C32.1004 26.9 33.4004 24.6 34.9004 22.6L35.4004 21.9C35.9004 21.3 35.2004 20.5 34.5004 20.8L33.7004 21.2Z" fill="#948C65"/>
</g>
<defs>
<clipPath id="clip0_209_157">
<rect width="90.8" height="90.8" fill="white"/>
</clipPath>
</defs>
</svg>
