<svg width="91" height="91" viewBox="0 0 91 91" fill="none" xmlns="http://www.w3.org/2000/svg">
<g clip-path="url(#clip0_209_255)">
<path d="M13.3999 68.6C11.6999 65.6 12.9999 61.8 16.0999 60.5V39.8C12.9999 38.4 11.6999 34.6 13.3999 31.7001C15.0999 28.7001 18.9999 27.9 21.7999 30C27.7999 26.6 33.6999 23.1 39.6999 19.7C39.2999 16.3 41.8999 13.3 45.3999 13.3C48.8999 13.3 51.4999 16.3 51.0999 19.7C57.0999 23.1 62.9999 26.5 68.9999 30C71.7999 28 75.6999 28.7001 77.3999 31.7001C79.0999 34.7001 77.7999 38.5 74.6999 39.8V60.5C77.7999 61.9001 79.0999 65.7 77.3999 68.6C75.6999 71.6 71.6999 72.4001 68.9999 70.3001C62.9999 73.7001 57.0999 77.2 51.0999 80.6C51.4999 84 48.8999 87 45.3999 87C41.8999 87 39.2999 84 39.6999 80.6C33.6999 77.2 27.7999 73.7001 21.7999 70.3001C19.0999 72.4001 15.1999 71.6 13.3999 68.6ZM48.4999 23.8L58.5999 41.3L66.9999 36.4001C66.3999 34.8001 66.5999 33 67.4999 31.6C61.7999 28.3 56.0999 25 50.3999 21.7C49.8999 22.6 49.2999 23.3 48.4999 23.8ZM56.5999 42.5L46.4999 24.9V44.6C47.7999 44.8 48.9999 45.5 49.7999 46.5L56.5999 42.5ZM59.6999 43.2001L69.7999 60.7001C70.5999 60.3 71.5999 60 72.4999 60V40.3C70.8999 40.3 69.1999 39.6 68.0999 38.3L59.6999 43.2001ZM67.8999 61.9001L57.6999 44.3L50.7999 48.3C51.1999 49.5 51.1999 50.9 50.7999 52.1L67.8999 61.9001ZM66.8999 67.4001H46.4999V75.7C48.1999 76 49.5999 77.1 50.3999 78.5C56.0999 75.2 61.7999 71.9 67.4999 68.6C67.2999 68.3 67.0999 67.8001 66.8999 67.4001ZM46.4999 65.2H66.6999C66.6999 64.8 66.7999 64.3001 66.9999 63.9001L49.6999 53.9001C48.8999 54.9001 47.6999 55.6 46.3999 55.8L46.4999 65.2ZM44.3999 67.4001H23.8999C23.7999 67.8001 23.5999 68.3 23.3999 68.6C29.0999 71.9 34.7999 75.2 40.4999 78.5C41.2999 77.1 42.6999 76 44.3999 75.7V67.4001ZM24.0999 65.2H44.3999V55.9001C43.0999 55.7001 41.8999 55 41.0999 54L23.7999 64C23.9999 64.3 24.0999 64.7 24.0999 65.2ZM21.0999 60.7001L31.1999 43.2001L22.7999 38.3C21.6999 39.6 20.0999 40.3 18.3999 40.3V60C19.2999 60 20.1999 60.3 21.0999 60.7001ZM33.0999 44.3L22.9999 61.9001L39.9999 52.1C39.5999 50.9 39.5999 49.5 39.9999 48.3L33.0999 44.3ZM32.1999 41.3C35.5999 35.5 38.8999 29.6 42.2999 23.8C41.2999 23.2 40.6999 22.5 40.3999 21.8C34.6999 25.1 28.9999 28.4001 23.2999 31.7001C24.0999 33.1 24.2999 34.9 23.7999 36.5L32.1999 41.3ZM44.3999 24.9L34.1999 42.5L41.0999 46.5C41.8999 45.5 43.0999 44.8 44.3999 44.6V24.9ZM15.3999 32.8C14.3999 34.5 14.9999 36.6 16.6999 37.6C18.3999 38.6 20.4999 38 21.4999 36.3C22.4999 34.6 21.8999 32.5 20.1999 31.5C18.4999 30.6 16.2999 31.2 15.3999 32.8ZM45.3999 84.9C47.2999 84.9 48.8999 83.3 48.8999 81.4C48.8999 79.5 47.2999 77.9 45.3999 77.9C43.4999 77.9 41.8999 79.5 41.8999 81.4C41.8999 83.3 43.4999 84.9 45.3999 84.9ZM75.4999 67.5C76.4999 65.8 75.8999 63.7001 74.1999 62.7001C72.4999 61.7001 70.3999 62.3 69.3999 64C68.3999 65.7001 68.9999 67.8001 70.6999 68.8001C72.3999 69.8001 74.4999 69.2001 75.4999 67.5ZM75.4999 32.8C74.4999 31.1 72.3999 30.6 70.6999 31.5C68.9999 32.5 68.4999 34.6 69.3999 36.3C70.3999 38 72.4999 38.5 74.1999 37.6C75.8999 36.6 76.3999 34.5 75.4999 32.8ZM45.3999 15.5C43.4999 15.5 41.8999 17.1 41.8999 19C41.8999 20.9 43.4999 22.5 45.3999 22.5C47.2999 22.5 48.8999 20.9 48.8999 19C48.8999 17 47.2999 15.5 45.3999 15.5ZM45.3999 46.7001C43.4999 46.7001 41.8999 48.3 41.8999 50.2001C41.8999 52.1001 43.4999 53.7001 45.3999 53.7001C47.2999 53.7001 48.8999 52.1001 48.8999 50.2001C48.8999 48.2001 47.2999 46.7001 45.3999 46.7001ZM15.3999 67.5C16.3999 69.2001 18.4999 69.7001 20.1999 68.8001C21.8999 67.8001 22.3999 65.7001 21.4999 64C20.4999 62.3 18.3999 61.8 16.6999 62.7001C14.9999 63.7001 14.3999 65.8 15.3999 67.5Z" fill="#948C65"/>
</g>
<defs>
<clipPath id="clip0_209_255">
<rect width="90.8" height="90.8" fill="white"/>
</clipPath>
</defs>
</svg>
