<svg width="91" height="91" viewBox="0 0 91 91" fill="none" xmlns="http://www.w3.org/2000/svg">
<g clip-path="url(#clip0_209_163)">
<path d="M62.6998 72.0999C62.2998 72.0999 61.9998 71.8999 61.6998 71.6999C61.3998 71.3999 61.2998 70.9999 61.2998 70.5999C61.2998 70.1999 61.4998 69.7999 61.8998 69.5999L68.6998 62.7999H57.4998C55.2998 62.7999 53.1998 61.8999 51.6998 60.2999L42.8998 51.0999L33.9998 60.1999C32.4998 61.7999 30.3998 62.6999 28.1998 62.6999H17.2998V59.8999H28.1998C29.5998 59.8999 30.8998 59.2999 31.8998 58.2999L40.7998 49.0999L31.8998 39.7999C30.8998 38.7999 29.5998 38.1999 28.1998 38.1999H17.2998V35.3999H28.1998C30.3998 35.3999 32.4998 36.2999 33.9998 37.8999L42.7998 47.0999L51.5998 37.8999C53.0998 36.2999 55.1998 35.3999 57.3998 35.3999H68.5998L61.8998 28.5999C61.6998 28.2999 61.5998 27.7999 61.6998 27.3999C61.7998 26.9999 62.1998 26.5999 62.5998 26.4999C62.6998 26.4999 62.8998 26.3999 62.9998 26.3999C63.2998 26.3999 63.5998 26.4999 63.7998 26.6999L72.8998 35.7999C73.1998 36.0999 73.2998 36.3999 73.2998 36.7999C73.2998 37.1999 73.1998 37.4999 72.8998 37.7999L63.8998 46.9999C63.5998 47.2999 63.2998 47.3999 62.8998 47.3999C62.4998 47.3999 62.1998 47.2999 61.8998 46.9999C61.5998 46.6999 61.4998 46.3999 61.4998 45.9999C61.4998 45.5999 61.5998 45.2999 61.8998 44.9999L68.5998 38.2999H57.3998C55.9998 38.2999 54.6998 38.8999 53.6998 39.8999L44.7998 49.0999L53.6998 58.3999C54.6998 59.3999 55.9998 59.9999 57.3998 59.9999H68.5998L61.8998 53.1999C61.6998 52.8999 61.5998 52.3999 61.6998 51.9999C61.7998 51.5999 62.1998 51.1999 62.5998 51.0999C62.6998 51.0999 62.8998 50.9999 62.9998 50.9999C63.2998 50.9999 63.5998 51.0999 63.7998 51.2999L72.8998 60.3999C73.1998 60.6999 73.2998 60.9999 73.2998 61.3999C73.2998 61.7999 73.1998 62.0999 72.8998 62.3999L63.6998 71.4999C63.3998 71.8999 62.9998 72.0999 62.5998 72.0999H62.6998Z" fill="#948C65"/>
</g>
<defs>
<clipPath id="clip0_209_163">
<rect width="90.8" height="90.8" fill="white"/>
</clipPath>
</defs>
</svg>
