<svg width="91" height="91" viewBox="0 0 91 91" fill="none" xmlns="http://www.w3.org/2000/svg">
<g clip-path="url(#clip0_209_148)">
<path d="M11.1004 61.8C10.4004 61.8 9.90039 61.3 9.90039 60.6V20.5C9.90039 17.7 12.1004 15.5 14.9004 15.5H75.9004C78.7004 15.5 80.9004 17.7 80.9004 20.5V60.6C80.9004 61.3 80.4004 61.8 79.7004 61.8H11.1004ZM78.6004 59.4V20.5C78.6004 18.9 77.6004 17.9 76.0004 17.9H15.0004C13.4004 17.9 12.4004 18.9 12.4004 20.5V59.4H78.6004Z" fill="#948C65"/>
<path d="M11.1002 75.0999C9.3002 75.0999 7.7002 74.6999 6.5002 73.8999C5.0002 72.9999 4.2002 71.5999 4.2002 69.9999V67.0999C4.2002 66.4999 4.6002 65.9999 5.2002 65.8999C5.3002 65.8999 5.3002 65.8999 5.3002 65.8999H5.4002H85.5002C86.2002 65.8999 86.7002 66.3999 86.7002 67.0999V69.9999C86.7002 71.4999 85.9002 72.8999 84.4002 73.8999C83.1002 74.6999 81.6002 75.0999 79.8002 75.0999H11.1002ZM6.6002 70.0999C6.6002 70.8999 6.9002 71.3999 7.8002 71.8999C8.6002 72.3999 9.9002 72.6999 11.2002 72.6999H79.9002C81.2002 72.6999 82.4002 72.3999 83.3002 71.8999C84.1002 71.3999 84.5002 70.8999 84.5002 70.0999V68.3999H6.6002V70.0999Z" fill="#948C65"/>
<path d="M69.8002 33.5H52.1002C51.6002 33.5 51.2002 33.0999 51.2002 32.5999C51.2002 32.0999 51.6002 31.7 52.1002 31.7H69.8002C70.3002 31.7 70.7002 32.0999 70.7002 32.5999C70.6002 33.0999 70.2002 33.5 69.8002 33.5Z" fill="#948C65"/>
<path d="M69.8002 40.3H52.1002C51.6002 40.3 51.2002 39.9 51.2002 39.4C51.2002 38.9 51.6002 38.5 52.1002 38.5H69.8002C70.3002 38.5 70.7002 38.9 70.7002 39.4C70.6002 39.9 70.2002 40.3 69.8002 40.3Z" fill="#948C65"/>
<path d="M69.8002 47H52.1002C51.6002 47 51.2002 46.5999 51.2002 46.0999C51.2002 45.5999 51.6002 45.2 52.1002 45.2H69.8002C70.3002 45.2 70.7002 45.5999 70.7002 46.0999C70.6002 46.5999 70.2002 47 69.8002 47Z" fill="#948C65"/>
<path d="M33.8006 53.0999C30.2006 53.0999 26.7006 51.6999 24.1006 49.0999C21.5006 46.4999 20.1006 43.1 20.1006 39.4C20.1006 35.8 21.5006 32.3 24.1006 29.7C26.7006 27.1 30.1006 25.7 33.8006 25.7C37.5006 25.7 40.9006 27.1 43.5006 29.7C46.1006 32.3 47.5006 35.7 47.5006 39.4C47.5006 43 46.1006 46.4999 43.5006 49.0999C40.9006 51.6999 37.4006 53.0999 33.8006 53.0999ZM27.7006 49.4C29.5006 50.5 31.6006 51.0999 33.8006 51.0999C36.0006 51.0999 38.1006 50.5 39.9006 49.4C39.8006 47.8 39.1006 46.2999 38.0006 45.0999C36.8006 43.8999 35.4006 43.2999 33.8006 43.2999C30.7006 43.1999 27.9006 46 27.7006 49.4ZM33.8006 27.7999C30.7006 27.7999 27.8006 29 25.6006 31.2C23.4006 33.4 22.2006 36.3 22.2006 39.4C22.2006 41 22.5006 42.5999 23.2006 44.0999C23.8006 45.4999 24.7006 46.8 25.9006 47.9C26.5006 44.9 28.8006 42.2999 31.7006 41.5C30.1006 40.7 29.1006 39.0999 29.1006 37.2999C29.1006 34.6999 31.2006 32.5999 33.8006 32.5999C36.4006 32.5999 38.5006 34.6999 38.5006 37.2999C38.5006 38.9999 37.5006 40.6 35.9006 41.5C38.8006 42.4 41.0006 44.9 41.7006 47.9C42.8006 46.8 43.7006 45.4999 44.4006 44.0999C45.1006 42.5999 45.4006 41 45.4006 39.4C45.4006 36.3 44.2006 33.4 42.0006 31.2C39.8006 29 36.9006 27.7999 33.8006 27.7999ZM33.8006 34.5999C33.1006 34.5999 32.4006 34.9 31.9006 35.4C31.4006 35.9 31.1006 36.5999 31.1006 37.2999C31.1006 38.7999 32.3006 40 33.8006 40C34.5006 40 35.2006 39.7 35.7006 39.2C36.2006 38.7 36.5006 37.9999 36.5006 37.2999C36.5006 35.7999 35.3006 34.5999 33.8006 34.5999Z" fill="#948C65"/>
</g>
<defs>
<clipPath id="clip0_209_148">
<rect width="90.8" height="90.8" fill="white"/>
</clipPath>
</defs>
</svg>
