<svg width="190" height="45" viewBox="0 0 190 45" fill="none" xmlns="http://www.w3.org/2000/svg">
<g clip-path="url(#clip0_209_104)">
<path d="M0 40.6001L1.1 40.5001C1.2 40.9001 1.3 41.2001 1.5 41.3001C1.7 41.5001 2 41.6001 2.4 41.6001C2.8 41.6001 3.1 41.5001 3.3 41.4001C3.5 41.2001 3.6 41.1001 3.6 40.8001C3.6 40.7001 3.6 40.5001 3.5 40.4001C3.4 40.3001 3.3 40.2001 3.1 40.1001C3 40.1001 2.7 40.0001 2.2 39.8001C1.6 39.6001 1.1 39.5001 0.9 39.2001C0.5 38.9001 0.4 38.5001 0.4 38.0001C0.4 37.7001 0.5 37.4001 0.7 37.2001C0.9 36.9001 1.1 36.7001 1.4 36.6001C1.7 36.5001 2.1 36.4001 2.5 36.4001C3.2 36.4001 3.8 36.6001 4.1 36.9001C4.5 37.2001 4.7 37.6001 4.7 38.2001H3.5C3.4 37.9001 3.3 37.7001 3.2 37.6001C3 37.5001 2.8 37.4001 2.5 37.4001C2.2 37.4001 1.9 37.5001 1.7 37.6001C1.6 37.7001 1.5 37.8001 1.5 38.0001C1.5 38.1001 1.6 38.3001 1.7 38.4001C1.8 38.5001 2.2 38.7001 2.8 38.8001C3.4 38.9001 3.8 39.1001 4.1 39.2001C4.4 39.3001 4.6 39.5001 4.7 39.8001C4.9 40.1001 4.9 40.4001 4.9 40.7001C4.9 41.0001 4.8 41.3001 4.6 41.6001C4.3 42.0001 4 42.2001 3.7 42.4001C3.4 42.5001 2.9 42.6001 2.4 42.6001C1.7 42.6001 1.1 42.4001 0.7 42.1001C0.3 41.7001 0.1 41.2001 0 40.6001Z" fill="white"/>
<path d="M6 37.7002V36.7002H7.1V37.7002H6ZM6 42.5002V38.3002H7.1V42.5002H6Z" fill="white"/>
<path d="M12.3 42.5002H11.2V40.3002C11.2 39.8002 11.2 39.6002 11.1 39.4002C11.1 39.3002 11 39.2002 10.9 39.1002C10.8 39.0002 10.7 39.0002 10.5 39.0002C10.3 39.0002 10.1 39.1002 10 39.2002C9.8 39.3002 9.7 39.4002 9.7 39.6002C9.6 39.8002 9.6 40.1002 9.6 40.6002V42.5002H8.5V38.3002H9.5V38.9002C9.9 38.4002 10.3 38.2002 10.9 38.2002C11.1 38.2002 11.4 38.2002 11.6 38.3002C11.8 38.4002 12 38.5002 12.1 38.6002C12.2 38.7002 12.3 38.9002 12.3 39.1002C12.3 39.3002 12.4 39.5002 12.4 39.9002V42.5002H12.3Z" fill="white"/>
<path d="M13.6 42.8002L14.9 42.9002C14.9 43.1002 15 43.2002 15 43.2002C15.1 43.3002 15.3 43.3002 15.5 43.3002C15.8 43.3002 16 43.3002 16.2 43.2002C16.3 43.1002 16.4 43.0002 16.4 42.9002C16.4 42.8002 16.5 42.6002 16.5 42.4002V41.8002C16.2 42.2002 15.8 42.5002 15.2 42.5002C14.6 42.5002 14.2 42.3002 13.9 41.8002C13.6 41.4002 13.5 41.0002 13.5 40.4002C13.5 39.7002 13.7 39.2002 14 38.8002C14.3 38.4002 14.8 38.2002 15.3 38.2002C15.8 38.2002 16.3 38.4002 16.6 38.9002V38.3002H17.6V42.0002C17.6 42.5002 17.6 42.9002 17.5 43.1002C17.4 43.3002 17.3 43.5002 17.2 43.7002C17.1 43.8002 16.9 44.0002 16.6 44.0002C16.4 44.1002 16 44.1002 15.7 44.1002C15 44.1002 14.5 44.0002 14.2 43.7002C13.9 43.5002 13.8 43.1002 13.8 42.8002C13.6 42.8002 13.6 42.8002 13.6 42.8002ZM14.6 40.3002C14.6 40.7002 14.7 41.1002 14.9 41.3002C15.1 41.5002 15.3 41.6002 15.5 41.6002C15.8 41.6002 16 41.5002 16.2 41.3002C16.4 41.1002 16.5 40.8002 16.5 40.4002C16.5 40.0002 16.4 39.6002 16.2 39.4002C16 39.1002 15.8 39.0002 15.5 39.0002C15.2 39.0002 15 39.1002 14.8 39.3002C14.7 39.5002 14.6 39.9002 14.6 40.3002Z" fill="white"/>
<path d="M18.9004 42.5002V36.7002H20.0004V42.5002H18.9004Z" fill="white"/>
<path d="M23.8 41.1001L24.9 41.3001C24.8 41.7001 24.5 42.0001 24.2 42.2001C23.9 42.4001 23.5 42.5001 23 42.5001C22.3 42.5001 21.7 42.3001 21.4 41.8001C21.1 41.4001 21 40.9001 21 40.3001C21 39.6001 21.2 39.1001 21.5 38.7001C21.9 38.3001 22.3 38.1001 22.9 38.1001C23.5 38.1001 24 38.3001 24.4 38.7001C24.8 39.1001 24.9 39.8001 24.9 40.6001H22.1C22.1 40.9001 22.2 41.2001 22.4 41.4001C22.6 41.6001 22.8 41.7001 23 41.7001C23.2 41.7001 23.3 41.7001 23.4 41.6001C23.7 41.5001 23.8 41.4001 23.8 41.1001ZM23.9 40.0001C23.9 39.7001 23.8 39.4001 23.6 39.3001C23.4 39.1001 23.2 39.0001 23 39.0001C22.8 39.0001 22.6 39.1001 22.4 39.3001C22.2 39.5001 22.2 39.7001 22.2 40.0001H23.9Z" fill="white"/>
<path d="M28.7002 42.5002V36.7002H33.0002V37.7002H29.9002V39.0002H32.8002V40.0002H29.9002V41.6002H33.1002V42.6002H28.7002V42.5002Z" fill="white"/>
<path d="M37.1002 42.5002V41.9002C36.9002 42.1002 36.7002 42.3002 36.5002 42.4002C36.2002 42.5002 36.0002 42.6002 35.7002 42.6002C35.4002 42.6002 35.2002 42.5002 34.9002 42.4002C34.7002 42.3002 34.5002 42.1002 34.4002 41.9002C34.3002 41.7002 34.2002 41.4002 34.2002 41.0002V38.3002H35.3002V40.2002C35.3002 40.8002 35.3002 41.2002 35.4002 41.3002C35.4002 41.4002 35.5002 41.5002 35.6002 41.6002C35.7002 41.7002 35.8002 41.7002 36.0002 41.7002C36.2002 41.7002 36.4002 41.6002 36.5002 41.5002C36.7002 41.4002 36.8002 41.3002 36.8002 41.1002C37.0002 41.0002 37.0002 40.6002 37.0002 40.0002V38.2002H38.1002V42.4002H37.1002V42.5002Z" fill="white"/>
<path d="M40.6 42.5002H39.5V38.3002H40.5V38.9002C40.7 38.6002 40.8 38.4002 41 38.3002C41.1 38.2002 41.3 38.2002 41.5 38.2002C41.8 38.2002 42 38.3002 42.2 38.4002L41.9 39.4002C41.7 39.3002 41.5 39.2002 41.4 39.2002C41.2 39.2002 41.1 39.2002 41 39.3002C40.9 39.4002 40.8 39.5002 40.7 39.8002C40.6 40.0002 40.6 40.5002 40.6 41.2002V42.5002Z" fill="white"/>
<path d="M42.5996 40.3001C42.5996 39.9001 42.6996 39.6001 42.8996 39.2001C43.0996 38.9001 43.2996 38.6001 43.6996 38.4001C43.9996 38.2001 44.3996 38.1001 44.7996 38.1001C45.3996 38.1001 45.9996 38.3001 46.3996 38.7001C46.7996 39.1001 46.9996 39.6001 46.9996 40.3001C46.9996 40.9001 46.7996 41.5001 46.3996 41.9001C45.9996 42.3001 45.4996 42.5001 44.7996 42.5001C44.3996 42.5001 43.9996 42.4001 43.6996 42.2001C43.2996 42.0001 43.0996 41.8001 42.8996 41.4001C42.6996 41.2001 42.5996 40.8001 42.5996 40.3001ZM43.7996 40.4001C43.7996 40.8001 43.8996 41.1001 44.0996 41.4001C44.2996 41.6001 44.4996 41.7001 44.7996 41.7001C45.0996 41.7001 45.2996 41.6001 45.4996 41.4001C45.6996 41.2001 45.7996 40.9001 45.7996 40.4001C45.7996 40.0001 45.6996 39.7001 45.4996 39.4001C45.2996 39.2001 45.0996 39.1001 44.7996 39.1001C44.4996 39.1001 44.2996 39.2001 44.0996 39.4001C43.8996 39.6001 43.7996 40.0001 43.7996 40.4001Z" fill="white"/>
<path d="M50.5996 42.5002V36.7002H52.4996C53.1996 36.7002 53.6996 36.7002 53.8996 36.8002C54.1996 36.9002 54.4996 37.1002 54.6996 37.4002C54.8996 37.7002 54.9996 38.1002 54.9996 38.5002C54.9996 38.9002 54.8996 39.2002 54.7996 39.4002C54.6996 39.6002 54.4996 39.8002 54.2996 40.0002C54.0996 40.1002 53.8996 40.2002 53.6996 40.3002C53.3996 40.4002 52.9996 40.4002 52.4996 40.4002H51.6996V42.6002H50.5996V42.5002ZM51.7996 37.6002V39.3002H52.3996C52.8996 39.3002 53.1996 39.3002 53.2996 39.2002C53.4996 39.1002 53.5996 39.0002 53.6996 38.9002C53.7996 38.8002 53.7996 38.6002 53.7996 38.4002C53.7996 38.2002 53.6996 38.0002 53.5996 37.9002C53.4996 37.8002 53.2996 37.7002 53.0996 37.6002C52.9996 37.6002 52.6996 37.6002 52.2996 37.6002H51.7996Z" fill="white"/>
<path d="M57.1 39.5001L56.1 39.3001C56.2 38.9001 56.4 38.6001 56.7 38.4001C57 38.2001 57.4 38.1001 57.9 38.1001C58.4 38.1001 58.8 38.2001 59 38.3001C59.2 38.4001 59.4 38.6001 59.5 38.7001C59.6 38.9001 59.6 39.2001 59.6 39.7001V41.0001C59.6 41.4001 59.6 41.6001 59.7 41.8001C59.7 42.0001 59.8 42.2001 59.9 42.4001H58.8C58.8 42.3001 58.7 42.2001 58.7 42.1001C58.7 42.0001 58.7 42.0001 58.7 42.0001C58.5 42.2001 58.3 42.3001 58.1 42.4001C57.9 42.5001 57.7 42.5001 57.4 42.5001C57 42.5001 56.6 42.4001 56.4 42.1001C56.1 42.0001 56 41.7001 56 41.3001C56 41.1001 56.1 40.8001 56.2 40.7001C56.3 40.5001 56.5 40.4001 56.7 40.3001C56.9 40.2001 57.2 40.1001 57.6 40.0001C58.1 39.9001 58.5 39.8001 58.7 39.7001V39.6001C58.7 39.4001 58.6 39.2001 58.5 39.1001C58.4 39.0001 58.2 39.0001 57.9 39.0001C57.7 39.0001 57.5 39.0001 57.4 39.1001C57.2 39.2001 57.2 39.3001 57.1 39.5001ZM58.6 40.5001C58.5 40.5001 58.2 40.6001 57.9 40.7001C57.6 40.8001 57.4 40.8001 57.3 40.9001C57.2 41.0001 57.1 41.1001 57.1 41.3001C57.1 41.5001 57.2 41.6001 57.3 41.7001C57.4 41.8001 57.6 41.9001 57.7 41.9001C57.9 41.9001 58.1 41.8001 58.3 41.7001C58.4 41.6001 58.5 41.5001 58.6 41.3001C58.6 41.2001 58.6 41.0001 58.6 40.8001V40.5001Z" fill="white"/>
<path d="M60.5 38.3H61.7L62.7 41.3L63.7 38.3H64.9L63.4 42.4001L63.1 43.1C63 43.3 62.9 43.5001 62.8 43.7001C62.7 43.8001 62.6 43.9 62.5 44C62.4 44.1 62.2 44.1001 62.1 44.2001C61.9 44.2001 61.7 44.3 61.5 44.3C61.3 44.3 61.1 44.3001 60.9 44.2001L60.8 43.3C61 43.3 61.1 43.4001 61.3 43.4001C61.6 43.4001 61.8 43.3001 61.9 43.2001C62 43.0001 62.1 42.8 62.2 42.6L60.5 38.3Z" fill="white"/>
<path d="M65.7002 38.3002H66.7002V38.9002C67.1002 38.4002 67.5002 38.2002 68.0002 38.2002C68.3002 38.2002 68.5002 38.3002 68.7002 38.4002C68.9002 38.5002 69.1002 38.7002 69.2002 38.9002C69.4002 38.7002 69.6002 38.5002 69.8002 38.4002C70.0002 38.3002 70.2002 38.2002 70.5002 38.2002C70.8002 38.2002 71.1002 38.3002 71.3002 38.4002C71.5002 38.5002 71.7002 38.7002 71.8002 39.0002C71.9002 39.2002 71.9002 39.5002 71.9002 39.9002V42.6002H70.8002V40.2002C70.8002 39.8002 70.8002 39.5002 70.7002 39.4002C70.6002 39.2002 70.4002 39.2002 70.2002 39.2002C70.0002 39.2002 69.9002 39.2002 69.8002 39.3002C69.7002 39.4002 69.6002 39.5002 69.5002 39.7002C69.4002 39.9002 69.4002 40.2002 69.4002 40.6002V42.6002H68.3002V40.3002C68.3002 39.9002 68.3002 39.6002 68.2002 39.5002C68.2002 39.4002 68.1002 39.3002 68.0002 39.2002C67.9002 39.0002 67.8002 39.0002 67.7002 39.0002C67.5002 39.0002 67.4002 39.0002 67.2002 39.1002C67.1002 39.2002 67.0002 39.3002 66.9002 39.5002C66.8002 39.7002 66.8002 40.0002 66.8002 40.4002V42.4002H65.7002V38.3002Z" fill="white"/>
<path d="M75.7004 41.1001L76.8004 41.3001C76.7004 41.7001 76.4004 42.0001 76.1004 42.2001C75.8004 42.4001 75.4004 42.5001 74.9004 42.5001C74.2004 42.5001 73.6004 42.3001 73.3004 41.8001C73.0004 41.4001 72.9004 40.9001 72.9004 40.3001C72.9004 39.6001 73.1004 39.1001 73.4004 38.7001C73.8004 38.3001 74.2004 38.1001 74.8004 38.1001C75.4004 38.1001 75.9004 38.3001 76.3004 38.7001C76.7004 39.1001 76.8004 39.8001 76.8004 40.6001H74.0004C74.0004 40.9001 74.1004 41.2001 74.3004 41.4001C74.5004 41.6001 74.7004 41.7001 74.9004 41.7001C75.1004 41.7001 75.2004 41.7001 75.3004 41.6001C75.5004 41.5001 75.6004 41.4001 75.7004 41.1001ZM75.7004 40.0001C75.7004 39.7001 75.6004 39.4001 75.4004 39.3001C75.2004 39.1001 75.0004 39.0001 74.8004 39.0001C74.6004 39.0001 74.4004 39.1001 74.2004 39.3001C74.0004 39.5001 74.0004 39.7001 74.0004 40.0001H75.7004Z" fill="white"/>
<path d="M81.8 42.5002H80.7V40.3002C80.7 39.8002 80.7 39.6002 80.6 39.4002C80.6 39.3002 80.5 39.2002 80.4 39.1002C80.3 39.1002 80.2 39.0002 80 39.0002C79.8 39.0002 79.6 39.1002 79.5 39.2002C79.3 39.3002 79.2 39.4002 79.2 39.6002C79.1 39.8002 79.1 40.1002 79.1 40.6002V42.5002H78V38.3002H79V38.9002C79.4 38.4002 79.8 38.2002 80.4 38.2002C80.6 38.2002 80.9 38.2002 81.1 38.3002C81.3 38.4002 81.5 38.5002 81.6 38.6002C81.7 38.7002 81.8 38.9002 81.8 39.1002C81.8 39.3002 81.9 39.5002 81.9 39.9002V42.5002H81.8Z" fill="white"/>
<path d="M85.0996 38.3001V39.2001H84.2996V40.9001C84.2996 41.2001 84.2996 41.4001 84.2996 41.5001C84.2996 41.6001 84.2996 41.6001 84.3996 41.6001C84.4996 41.6001 84.4996 41.7001 84.5996 41.7001C84.6996 41.7001 84.7996 41.7001 84.9996 41.6001L85.0996 42.5001C84.7996 42.6001 84.5996 42.7001 84.1996 42.7001C83.9996 42.7001 83.7996 42.7001 83.6996 42.6001C83.4996 42.5001 83.3996 42.4001 83.2996 42.3001C83.1996 42.2001 83.1996 42.0001 83.0996 41.9001C83.0996 41.8001 83.0996 41.5001 83.0996 41.1001V39.3001H82.5996V38.4001H83.0996V37.6001L84.1996 36.9001V38.4001H85.0996V38.3001Z" fill="white"/>
<path d="M85.7998 41.3L86.8998 41.1C86.8998 41.3 86.9998 41.5 87.1998 41.6C87.2998 41.7 87.4998 41.8 87.7998 41.8C88.0998 41.8 88.2998 41.7 88.3998 41.6C88.4998 41.5 88.4998 41.4 88.4998 41.3C88.4998 41.2 88.4998 41.1 88.3998 41.1C88.3998 41 88.2998 41 88.0998 41C87.1998 40.8 86.5998 40.6 86.3998 40.5C86.0998 40.3 85.8998 40 85.8998 39.6C85.8998 39.2 85.9998 38.9001 86.2998 38.7001C86.5998 38.5001 86.9998 38.3 87.5998 38.3C88.1998 38.3 88.5998 38.4 88.8998 38.6C89.1998 38.8 89.3998 39.1001 89.4998 39.4001L88.4998 39.6C88.4998 39.4 88.3998 39.3001 88.1998 39.2001C88.0998 39.0001 87.8998 39 87.6998 39C87.3998 39 87.1998 39 87.0998 39.1C86.9998 39.2 86.9998 39.2 86.9998 39.3C86.9998 39.4 86.9998 39.4 87.0998 39.5C87.1998 39.6 87.4998 39.7 88.0998 39.8C88.6998 39.9 89.0998 40.1 89.2998 40.3C89.4998 40.5 89.6998 40.8 89.6998 41.1C89.6998 41.5 89.4998 41.8 89.1998 42.1C88.8998 42.4 88.3998 42.5 87.7998 42.5C87.1998 42.5 86.7998 42.4001 86.3998 42.2001C86.0998 42.0001 85.8998 41.7 85.7998 41.3Z" fill="white"/>
<path d="M98.5998 42.5002H97.2998L96.7998 41.2002H94.4998L93.9998 42.5002H92.7998L95.0998 36.7002H96.2998L98.5998 42.5002ZM96.4998 40.2002L95.6998 38.0002L94.8998 40.2002H96.4998Z" fill="white"/>
<path d="M100.6 42.5002H99.5V38.3002H100.5V38.9002C100.7 38.6002 100.8 38.4002 101 38.3002C101.1 38.2002 101.3 38.2002 101.5 38.2002C101.8 38.2002 102 38.3002 102.2 38.4002L101.9 39.4002C101.7 39.3002 101.5 39.2002 101.4 39.2002C101.2 39.2002 101.1 39.2002 101 39.3002C100.9 39.4002 100.8 39.5002 100.7 39.8002C100.6 40.0002 100.6 40.5002 100.6 41.2002V42.5002Z" fill="white"/>
<path d="M105.4 41.1001L106.5 41.3001C106.4 41.7001 106.1 42.0001 105.8 42.2001C105.5 42.4001 105.1 42.5001 104.6 42.5001C103.9 42.5001 103.3 42.3001 103 41.8001C102.7 41.4001 102.6 40.9001 102.6 40.3001C102.6 39.6001 102.8 39.1001 103.1 38.7001C103.5 38.3001 103.9 38.1001 104.5 38.1001C105.1 38.1001 105.6 38.3001 106 38.7001C106.4 39.1001 106.5 39.8001 106.5 40.6001H103.7C103.7 40.9001 103.8 41.2001 104 41.4001C104.2 41.6001 104.4 41.7001 104.6 41.7001C104.8 41.7001 104.9 41.7001 105 41.6001C105.2 41.5001 105.3 41.4001 105.4 41.1001ZM105.4 40.0001C105.4 39.7001 105.3 39.4001 105.1 39.3001C104.9 39.1001 104.7 39.0001 104.5 39.0001C104.3 39.0001 104.1 39.1001 103.9 39.3001C103.7 39.5001 103.7 39.7001 103.7 40.0001H105.4Z" fill="white"/>
<path d="M108.5 39.5001L107.5 39.3001C107.6 38.9001 107.8 38.6001 108.1 38.4001C108.4 38.2001 108.8 38.1001 109.3 38.1001C109.8 38.1001 110.2 38.2001 110.4 38.3001C110.6 38.4001 110.8 38.6001 110.9 38.7001C111 38.9001 111 39.2001 111 39.7001V41.0001C111 41.4001 111 41.6001 111.1 41.8001C111.1 42.0001 111.2 42.2001 111.3 42.4001H110.2C110.2 42.3001 110.1 42.2001 110.1 42.1001C110.1 42.0001 110.1 42.0001 110.1 42.0001C109.9 42.2001 109.7 42.3001 109.5 42.4001C109.3 42.5001 109.1 42.5001 108.8 42.5001C108.4 42.5001 108 42.4001 107.8 42.1001C107.6 41.9001 107.4 41.6001 107.4 41.2001C107.4 41.0001 107.5 40.7001 107.6 40.6001C107.7 40.4001 107.9 40.3001 108.1 40.2001C108.3 40.1001 108.6 40.0001 109 39.9001C109.5 39.8001 109.9 39.7001 110.1 39.6001V39.5001C110.1 39.3001 110 39.1001 109.9 39.0001C109.8 38.9001 109.6 38.9001 109.3 38.9001C109.1 38.9001 108.9 38.9001 108.8 39.0001C108.6 39.2001 108.6 39.3001 108.5 39.5001ZM110 40.5001C109.9 40.5001 109.6 40.6001 109.3 40.7001C109 40.8001 108.8 40.8001 108.7 40.9001C108.6 41.0001 108.5 41.1001 108.5 41.3001C108.5 41.5001 108.6 41.6001 108.7 41.7001C108.8 41.8001 109 41.9001 109.1 41.9001C109.3 41.9001 109.5 41.8001 109.7 41.7001C109.8 41.6001 109.9 41.5001 110 41.3001C110 41.2001 110 41.0001 110 40.8001V40.5001Z" fill="white"/>
<path d="M24.7 13.8H17.1C17.1 12.6 17 11.7 16.7 11.3C16.2 10.7 15 10.4 12.9 10.4C10.9 10.4 9.6 10.6 9 10.9C8.4 11.3 8 12.1 8 13.3C8 14.4 8.3 15.1 8.9 15.5C9.3 15.7 9.8 15.9 10.5 15.9L12 16C15.3 16.2 17.3 16.4 18.2 16.5C20.8 16.8 22.7 17.5 23.9 18.6C24.8 19.5 25.4 20.6 25.5 22C25.6 22.8 25.7 23.8 25.7 24.9C25.7 27.3 25.5 29.1 25 30.3C24.2 32.4 22.2 33.7 19.3 34.3C18.1 34.5 16.2 34.7001 13.6 34.7001C9.3 34.7001 6.4 34.4001 4.7 33.9001C2.6 33.3001 1.3 32 0.6 30.1C0.2 28.9 0 27.1 0 24.7001H7.6C7.6 25 7.6 25.2 7.6 25.3C7.6 26.6 8 27.5 8.7 27.8C9.2 28.1 9.9 28.2001 10.6 28.2001H13.4C14.8 28.2001 15.7 28.1 16.1 28C16.8 27.7001 17.3 27.3001 17.5 26.7001C17.6 26.3001 17.7 25.8001 17.7 25.2001C17.7 23.9001 17.2 23 16.2 22.8C15.8 22.7 14.1 22.5 11.1 22.3C8.7 22.1 7 22 6 21.8C3.5 21.3 1.8 20.4 1 18.9C0.4 17.7 0 15.8 0 13.3C0 11.4 0.2 9.90005 0.6 8.70005C1 7.50005 1.6 6.70005 2.5 6.10005C3.8 5.20005 5.4 4.60005 7.4 4.50005C9.1 4.40005 11 4.30005 13 4.30005C16.2 4.30005 18.5 4.50005 19.8 4.80005C23.1 5.70005 24.8 8.20005 24.8 12.3C24.8 12.7 24.8 13.2 24.7 13.8Z" fill="white"/>
<path d="M58.2002 34.5001V4.1001H70.1002H72.0002H73.4002C75.5002 4.1001 77.1002 4.3001 78.2002 4.6001C80.7002 5.4001 82.4002 7.0001 83.3002 9.4001C83.7002 10.7001 84.0002 12.6001 84.0002 15.2001C84.0002 18.3001 83.8002 20.5001 83.3002 21.9001C82.3002 24.6001 80.3002 26.1001 77.3002 26.5001C76.9002 26.6001 75.4002 26.6001 72.7002 26.7001H71.3002H66.4002V34.6001H58.2002V34.5001ZM66.4002 19.6001H71.5002C73.1002 19.5001 74.1002 19.4001 74.5002 19.2001C75.0002 18.9001 75.3002 18.4001 75.5002 17.6001C75.6002 17.1001 75.7002 16.3001 75.7002 15.2001C75.7002 13.9001 75.6002 13.0001 75.4002 12.3001C75.1002 11.4001 74.4002 10.9001 73.3002 10.7001C73.1002 10.7001 72.6002 10.7001 71.7002 10.7001H66.5002V19.6001H66.4002Z" fill="white"/>
<path d="M101.4 29.3001H90.5L89 34.5001H80.5L89.6 4.1001H102L111.2 34.5001H103L101.4 29.3001ZM99.8 23.4001L96 10.2001L92.3 23.4001H99.8Z" fill="white"/>
<path d="M46.8998 8.40015C50.2998 8.40015 53.2998 10.0001 55.2998 12.4001L56.9998 8.60015C54.2998 6.00015 50.4998 4.40015 46.3998 4.40015C39.9998 4.40015 34.3998 8.30015 32.1998 13.8001H28.7998L26.7998 18.2001H31.1998C31.1998 18.6001 31.0998 19.0001 31.0998 19.4001C31.0998 19.9001 31.0998 20.4001 31.1998 20.9001H28.9998L26.9998 25.3001H32.3998C34.6998 30.7001 40.1998 34.4001 46.4998 34.4001C49.6998 34.4001 52.6998 33.4001 55.0998 31.8001V26.5001C53.0998 28.8001 50.1998 30.2001 46.9998 30.2001C43.1998 30.2001 39.8998 28.3001 37.9998 25.3001H49.2998L51.2998 20.9001H36.2998C36.1998 20.4001 36.1998 19.8001 36.1998 19.3001C36.1998 18.9001 36.1998 18.6001 36.2998 18.2001H52.5998L54.5998 13.8001H37.5998C39.3998 10.6001 42.8998 8.40015 46.8998 8.40015Z" fill="white"/>
<path d="M46.9 8.5001C50.1 8.5001 53.1 9.9001 55.2 12.4001L55.3 12.6001L55.4 12.4001L57.2 8.6001V8.5001L57.1 8.4001C54.2 5.7001 50.4 4.1001 46.4 4.1001C43.3 4.1001 40.2 5.0001 37.6 6.8001C35.1 8.5001 33.1 10.9001 32 13.6001L32.1 13.5001H28.7H28.6V13.6001L26.6 18.0001L26.5 18.2001H26.7H31.1H31C31 18.7001 30.9 19.1001 30.9 19.4001C30.9 19.9001 30.9 20.4001 31 20.9001L31.1 20.8001H28.9H28.8V20.9001L26.8 25.3001L26.7 25.5001H26.9H32.3L32.2 25.4001C34.6 31.0001 40.2 34.6001 46.4 34.6001C49.5 34.6001 52.5 33.7001 55.1 32.0001H55.2V31.9001V26.6001V26.3001L55 26.6001C53 28.9001 50.1 30.2001 47 30.2001C43.4 30.2001 40.1 28.4001 38.1 25.4001L38 25.6001H49.3H49.4V25.5001L51.4 21.1001L51.5 20.9001H51.3H36.3L36.4 21.0001C36.3 20.5001 36.3 19.9001 36.3 19.4001C36.3 19.0001 36.3 18.7001 36.4 18.3001L36.3 18.4001H52.6H52.7V18.3001L54.7 13.9001L54.8 13.7001H54.6H37.6L37.7 13.9001C39.6 10.6001 43.1 8.5001 46.9 8.5001ZM37.6 13.9001H54.5L54.4 13.7001L52.4 18.1001L52.5 18.0001H36.2H36V18.1001C36 18.5001 35.9 18.8001 35.9 19.2001C35.9 19.7001 35.9 20.3001 36 20.8001V20.9001H36.1H51.1L51 20.7001L49 25.1001L49.1 25.0001H37.9H37.7L37.8 25.2001C39.8 28.3001 43.2 30.1001 46.9 30.1001C50 30.1001 53 28.7001 55.1 26.4001L54.9 26.3001V31.6001L55 31.5001C52.5 33.2001 49.5 34.1001 46.4 34.1001C40.3 34.1001 34.8 30.5001 32.4 25.0001V24.9001H32.3H26.9L27 25.1001L29 20.7001L28.9 21.0001H31.1H31.2V20.9001C31.2 20.4001 31.1 19.9001 31.1 19.4001C31.1 19.0001 31.1 18.6001 31.2 18.2001V18.1001H31.1H26.7L26.8 18.3001L28.8 13.9001L28.7 14.0001H32.1H32.2V13.9001C33.3 11.2001 35.2 8.9001 37.7 7.2001C40.2 5.5001 43.2 4.6001 46.3 4.6001C50.3 4.6001 54 6.1001 56.9 8.8001V8.6001L55.1 12.4001H55.3C53.2 9.8001 50.1 8.4001 46.8 8.4001C42.9 8.4001 39.3 10.5001 37.3 13.9001L37.2 14.1001H37.6V13.9001Z" fill="white"/>
<path d="M151.618 17.0251C150.118 17.0251 148.718 18.2251 148.818 20.0251C148.818 21.0251 149.618 21.9251 150.418 22.7251C151.618 24.0251 152.018 23.8251 151.918 25.2251C151.918 25.7251 151.118 26.5251 150.218 26.5251C148.918 26.5251 148.018 25.2251 148.318 23.7251H147.918L146.918 27.3251H147.318C147.418 26.9251 148.218 27.0251 148.518 26.9251C149.118 26.9251 149.418 27.3251 150.618 27.3251C152.218 27.3251 153.818 26.2251 153.818 24.3251C153.818 23.3251 153.218 22.6251 152.318 21.8251C151.018 20.6251 150.518 20.0251 150.818 19.0251C151.018 18.2251 151.618 18.0251 152.218 17.9251C153.318 17.9251 153.818 19.0251 153.918 20.2251H154.318L155.218 17.2251H154.818C154.718 17.6251 154.318 17.6251 153.918 17.6251C153.718 17.6251 153.718 17.6251 153.318 17.5251C152.718 17.3251 152.118 17.0251 151.618 17.0251ZM155.418 17.4251L155.318 18.0251C155.918 18.0251 156.118 18.0251 156.118 19.1251V27.3251C156.118 27.3251 156.318 27.7251 156.518 27.3251C156.718 26.9251 160.318 21.0251 160.318 21.0251V21.2251V27.3251C160.318 27.3251 160.518 27.7251 160.818 27.3251C161.018 26.9251 166.018 18.7251 166.018 18.7251C166.218 18.3251 166.418 18.0251 167.018 18.0251L167.118 17.4251H164.018L163.918 18.0251C164.618 18.0251 165.018 17.9251 165.018 18.3251C165.018 18.5251 165.018 18.6251 164.918 18.8251L162.418 22.9251L162.318 22.8251V19.1251C162.318 18.9251 162.318 18.8251 162.318 18.6251C162.318 18.0251 162.518 18.0251 163.018 17.9251L163.118 17.3251H159.718L159.618 17.9251C160.118 17.9251 160.318 18.1251 160.318 18.5251V19.3251L158.118 22.9251L158.018 23.0251V19.0251C158.018 18.9251 158.018 18.6251 158.018 18.5251C158.018 18.3251 158.018 17.9251 158.618 17.9251L158.818 17.3251H155.418V17.4251ZM167.518 17.4251L167.418 18.0251C167.718 18.0251 168.018 18.1251 168.018 18.4251C168.018 18.5251 167.918 18.7251 167.918 19.0251L166.018 26.0251C165.918 26.5251 165.318 26.7251 164.618 26.7251L164.518 27.3251H168.518L168.618 26.7251C167.918 26.7251 167.918 26.5251 167.918 26.2251C167.918 26.0251 168.018 25.9251 168.018 25.7251L169.918 18.7251C170.118 18.0251 170.618 18.0251 171.318 18.0251L171.418 17.4251H167.518ZM172.018 17.4251L171.918 18.0251C172.518 18.0251 173.318 18.0251 173.118 18.7251C173.118 18.9251 173.118 18.8251 173.018 19.0251L171.218 25.8251C171.118 26.4251 170.618 26.6251 170.118 26.6251L169.918 27.2251H174.118L174.318 26.6251C173.418 26.6251 173.018 26.5251 173.218 25.8251C173.218 25.6251 173.318 25.4251 173.418 25.1251L174.318 22.1251H174.518C175.318 22.1251 175.618 22.2251 175.618 22.6251C175.618 22.9251 175.618 23.1251 175.618 23.3251H176.118L176.818 20.4251L176.418 20.3251C176.018 21.3251 175.218 21.3251 174.918 21.3251H174.518L175.118 18.9251C175.418 18.0251 175.418 18.1251 176.118 18.1251C177.218 18.1251 177.918 18.3251 177.818 19.9251H178.218L178.918 17.3251H172.018V17.4251ZM179.418 17.4251L178.718 20.0251H179.118C179.318 19.3251 179.318 19.1251 179.818 18.8251C180.218 18.4251 180.718 18.3251 181.518 18.3251L179.518 25.5251C179.418 26.7251 178.718 26.7251 177.818 26.7251L177.718 27.3251H182.218L182.318 26.8251C181.718 26.9251 181.418 26.5251 181.518 26.0251C181.518 25.8251 181.618 25.6251 181.718 25.3251L183.518 18.3251C184.918 18.3251 185.218 18.9251 185.118 20.1251H185.518L186.218 17.5251H179.418V17.4251ZM162.518 26.2251C162.318 26.2251 162.018 26.5251 162.018 26.9251C161.918 27.3251 162.118 27.5251 162.318 27.6251C162.518 27.6251 162.818 27.3251 162.818 26.9251C162.918 26.5251 162.718 26.2251 162.518 26.2251ZM169.418 26.2251C169.218 26.2251 168.918 26.5251 168.918 26.9251C168.818 27.3251 169.018 27.5251 169.218 27.6251C169.418 27.6251 169.718 27.3251 169.718 26.9251C169.818 26.5251 169.718 26.2251 169.418 26.2251ZM175.418 26.2251C175.218 26.2251 174.918 26.5251 174.918 26.9251C174.818 27.3251 175.018 27.5251 175.218 27.6251C175.418 27.6251 175.718 27.3251 175.718 26.9251C175.818 26.5251 175.618 26.2251 175.418 26.2251ZM154.018 26.2251C153.818 26.2251 153.518 26.5251 153.518 26.9251C153.418 27.3251 153.618 27.5251 153.818 27.6251C154.018 27.6251 154.318 27.3251 154.318 26.9251C154.418 26.5251 154.318 26.2251 154.018 26.2251ZM183.418 26.2251C183.218 26.2251 182.918 26.5251 182.918 26.9251C182.818 27.3251 183.018 27.5251 183.218 27.6251C183.418 27.6251 183.718 27.3251 183.718 26.9251C183.718 26.5251 183.618 26.2251 183.418 26.2251Z" fill="white"/>
<path d="M166.718 44.9252C163.718 44.9252 160.718 44.3252 158.018 43.1252C155.318 42.0252 152.918 40.4252 150.918 38.3252C148.818 36.2252 147.218 33.8252 146.118 31.2252C144.918 28.4252 144.318 25.5252 144.318 22.5252C144.318 19.5252 144.918 16.5252 146.118 13.8252C147.218 11.1252 148.818 8.72524 150.918 6.72524C153.018 4.62524 155.418 3.02524 158.018 1.92524C160.818 0.725243 163.718 0.125244 166.718 0.125244C169.718 0.125244 172.718 0.725243 175.418 1.92524C178.118 3.02524 180.518 4.62524 182.518 6.72524C184.618 8.82524 186.218 11.2252 187.318 13.8252C188.518 16.6252 189.118 19.5252 189.118 22.5252C189.118 25.5252 188.518 28.5252 187.318 31.2252C186.218 33.9252 184.618 36.3252 182.518 38.3252C180.418 40.4252 178.018 42.0252 175.418 43.1252C172.718 44.3252 169.818 44.9252 166.718 44.9252ZM167.318 37.6252V43.5252C167.918 43.1252 169.718 42.0252 171.718 40.1252C172.518 39.3252 173.318 38.5252 173.918 37.6252H167.318ZM159.618 37.6252C160.218 38.5252 161.018 39.3252 161.818 40.1252C163.718 41.9252 165.418 43.0252 166.118 43.4252V37.6252H159.618ZM151.918 37.6252C155.218 40.8252 159.318 42.8252 163.818 43.4252C163.018 42.8252 162.018 42.0252 160.918 40.9252C159.818 39.8252 158.918 38.7252 158.018 37.5252H151.918V37.6252ZM175.418 37.6252C174.618 38.8252 173.618 39.9252 172.518 41.0252C171.518 42.0252 170.518 42.8252 169.618 43.4252C174.118 42.8252 178.218 40.8252 181.518 37.6252H175.418ZM176.218 36.4252H182.718C184.318 34.5252 185.618 32.4252 186.518 30.2252H178.718C178.218 32.4252 177.418 34.4252 176.218 36.4252ZM167.318 36.4252H174.718C174.818 36.2252 175.018 36.0252 175.118 35.7252C176.218 33.9252 176.918 32.1252 177.318 30.2252H167.218V36.4252H167.318ZM158.818 36.4252H166.118V30.2252H156.118C156.518 32.1252 157.318 33.9252 158.318 35.7252C158.518 35.9252 158.618 36.2252 158.818 36.4252ZM150.818 36.4252H157.418C157.418 36.4252 157.418 36.3252 157.318 36.3252C156.118 34.4252 155.318 32.3252 154.918 30.2252H147.018C147.918 32.5252 149.118 34.6252 150.818 36.4252ZM146.518 29.0252H186.918C187.618 26.9252 187.918 24.7252 187.918 22.4252C187.918 20.1252 187.618 17.9252 186.918 15.9252H146.518C145.818 18.0252 145.518 20.2252 145.518 22.4252C145.518 24.7252 145.918 26.9252 146.518 29.0252ZM178.418 14.7252H186.418C185.518 12.4252 184.218 10.3252 182.618 8.52524H175.918C175.918 8.52524 175.918 8.52524 175.918 8.62524C177.218 10.4252 178.018 12.5252 178.418 14.7252ZM167.318 14.7252H177.218C176.818 12.8252 176.018 10.9252 175.018 9.22524C174.918 9.02524 174.718 8.72524 174.618 8.52524H167.318V14.7252ZM156.018 14.7252H166.118V8.52524H158.718C158.618 8.72524 158.418 8.92524 158.318 9.22524C157.218 10.9252 156.418 12.7252 156.018 14.7252ZM147.018 14.7252H154.818C155.318 12.5252 156.118 10.4252 157.318 8.52524H150.918C149.118 10.3252 147.818 12.4252 147.018 14.7252ZM175.218 7.22524H181.518C178.218 4.02524 174.018 1.92524 169.518 1.42524C170.318 2.02524 171.318 2.82524 172.318 3.82524C173.518 4.92524 174.418 6.02524 175.218 7.22524ZM167.318 7.22524H173.718C173.018 6.32524 172.318 5.52524 171.518 4.72524C169.718 2.92524 167.918 1.82524 167.318 1.42524V7.22524ZM159.518 7.22524H166.118V1.32524C165.418 1.72524 163.618 2.82524 161.818 4.62524C160.918 5.52524 160.218 6.32524 159.518 7.22524ZM151.918 7.22524H158.018C158.918 6.02524 159.818 4.82524 161.018 3.82524C162.018 2.82524 163.018 2.02524 163.918 1.42524C159.318 2.02524 155.218 4.02524 151.918 7.22524Z" fill="white"/>
</g>
<defs>
<clipPath id="clip0_209_104">
<rect width="189.2" height="44.9" fill="white"/>
</clipPath>
</defs>
</svg>
