<svg id="Lager_1" data-name="Lager 1" xmlns="http://www.w3.org/2000/svg" viewBox="0 0 183.83031 41.88786"><defs><style>.cls-1{fill:#706f6f;}.cls-2{fill:#2ec6b3;}</style></defs><path class="cls-1" d="M54.02949,26.02072h1.134v8.37819h-1.134Z"/><path class="cls-1" d="M60.82482,26.02072h1.68941l7.672,7.35968V26.02072h1.134v8.37819H69.63083l-7.672-7.35969v7.35969h-1.134Z"/><path class="cls-1" d="M76.88072,26.02072h1.68942l7.672,7.35968V26.02072h1.134v8.37819H85.68674l-7.672-7.35969v7.35969h-1.134Z"/><path class="cls-1" d="M92.78632,29.06409c0-2.11724.7175-3.13575,2.98544-3.13575h4.82557c2.26794,0,2.985,1.01851,2.985,3.13575v2.29144c0,2.11724-.71709,3.13575-2.985,3.13575H95.77176c-2.26794,0-2.98544-1.01851-2.98544-3.13575Zm9.66247-.42782c0-1.45849-.88-1.7826-1.96733-1.7826H95.88763c-1.08779,0-1.96733.32411-1.96733,1.7826v3.14709c0,1.45848.87954,1.78259,1.96733,1.78259h4.59383c1.08738,0,1.96733-.32411,1.96733-1.78259Z"/><path class="cls-1" d="M108.19442,26.02072h1.27293l4.06189,7.35968,4.06188-7.35968h1.27212l-4.6396,8.37819h-1.38881Z"/><path class="cls-1" d="M126.6702,26.02072h1.4123l4.97586,8.37819h-1.28508l-1.0412-1.77044h-6.71147l-1.04119,1.77044h-1.28509Zm.70655.92613-2.81245,4.75548h5.62409Z"/><path class="cls-1" d="M140.28435,26.94685h-4.23447v-.92613H145.654v.92613h-4.23528v7.45206h-1.13438Z"/><path class="cls-1" d="M150.4735,26.02072h1.13357v8.37819H150.4735Z"/><path class="cls-1" d="M157.11771,29.06409c0-2.11724.71709-3.13575,2.985-3.13575h4.826c2.268,0,2.985,1.01851,2.985,3.13575v2.29144c0,2.11724-.71709,3.13575-2.985,3.13575h-4.826c-2.26795,0-2.985-1.01851-2.985-3.13575Zm9.66247-.42782c0-1.45849-.88-1.7826-1.96733-1.7826h-4.59423c-1.08739,0-1.96734.32411-1.96734,1.7826v3.14709c0,1.45848.87995,1.78259,1.96734,1.78259h4.59423c1.08738,0,1.96733-.32411,1.96733-1.78259Z"/><path class="cls-1" d="M173.32473,26.02072h1.68942l7.67163,7.35968V26.02072h1.13438v8.37819h-1.68941l-7.67245-7.35969v7.35969h-1.13357Z"/><path class="cls-2" d="M30.22553,34.772c-.01751,0-.75676.00057-.77425.00067l.60764-.00067H9.74077A11.83677,11.83677,0,0,1,.278,30.02373c-.04291-.04318-.07761-.12815-.11515-.16607L.36657,30.8968c.78551,3.22765,4.66071,9.11194,10.14015,9.11194h23.656a6.59605,6.59605,0,0,1,4.61018,1.87912l-.12571-.35894C36.99357,37.03737,33.77363,34.772,30.22553,34.772Z"/><path class="cls-2" d="M42.31291,35.45277a9.10947,9.10947,0,0,0-1.50252-4.9189A7.94126,7.94126,0,0,0,33.79524,26.74H11.83548a6.82335,6.82335,0,0,1-6.78841-6.78841V11.83548a6.82334,6.82334,0,0,1,6.78841-6.78841h5.81235V5.02728h24.381C41.48148,1.84171,40.33672,0,32.36267,0H11.83547A11.87026,11.87026,0,0,0,0,11.83547v8.11611A11.87026,11.87026,0,0,0,11.83547,31.78705H32.15362v.00066l.05237-.00066c3.92756,0,7.59328,2.77547,9.0072,8.27406A11.9467,11.9467,0,0,0,42.31291,35.45277Z"/><path class="cls-2" d="M10.11867,21.54714a5.88208,5.88208,0,0,0,4.79,1.99843H36.62647a6.28308,6.28308,0,0,1,4.22015,1.59724V24.803a6.6229,6.6229,0,0,0-6.64254-6.31733H12.58491a6.29744,6.29744,0,0,1-4.46467-1.85959v.131A6.737,6.737,0,0,0,10.11867,21.54714Z"/><path class="cls-1" d="M59.93346,20.70853c-2.9326,0-5.93059-.49-5.93059-4.1238V15.19206H56.494v1.35063c0,1.61151,1.13014,1.92679,3.08234,1.92679H65.9631c3.0447,0,3.58651-.6645,3.58651-2.53606,0-1.58761-.4394-2.11589-3.0403-2.11589H62.6016c-3.29589,0-5.33066-.11457-6.64275-.7189-1.38573-.63825-1.977-1.82623-1.977-3.97213,0-3.7829,2.41338-4.523,6.5819-4.523h4.4329c2.56985,0,4.24345.33039,5.26691,1.03981a3.556,3.556,0,0,1,1.39906,3.25207v.80441H69.17629l-.00474-.27427c-.02088-1.20082-.09287-1.76187-.6941-2.09542-.735-.40781-2.28734-.48755-4.72029-.48755h-2.185c-4.06714,0-5.09919.23883-5.09919,2.431,0,1.55085.302,2.13684,3.50251,2.13684h6.09263c4.1306,0,5.97263,1.23942,5.97263,4.01877v.98747a3.63086,3.63086,0,0,1-2.0755,3.66167,10.63534,10.63534,0,0,1-4.3173.63022Z"/><polygon class="cls-1" points="82.302 20.54 82.302 7.011 74.613 7.011 74.613 4.772 92.609 4.772 92.609 7.011 84.919 7.011 84.919 20.54 82.302 20.54"/><path class="cls-1" d="M110.58052,20.54044V16.92082c0-2.057-.80957-2.389-2.74618-2.389H98.07119v6.00862H95.45394V4.77156H107.8974c4.53387,0,5.36335,1.5444,5.36335,4.586v1.23955a2.7091,2.7091,0,0,1-1.93681,2.94854,2.71021,2.71021,0,0,1,1.74771,2.829v4.16583Zm-2.91426-8.24766c2.47925,0,2.97731-.73724,2.97731-1.92679V8.97943c0-1.33833-.34344-1.96882-3.48149-1.96882H98.07119v5.28217Z"/><polygon class="cls-1" points="117.962 20.54 117.962 4.772 133.458 4.772 133.458 7.011 120.579 7.011 120.579 11.305 132.954 11.305 132.954 13.544 120.579 13.544 120.579 18.301 133.542 18.301 133.542 20.54 117.962 20.54"/><path class="cls-1" d="M154.23161,20.54044l-1.89079-3.21436h-11.866L138.584,20.54044h-2.982l9.36544-15.76888h2.88088l9.36551,15.76888Zm-3.2079-5.45341-4.61589-7.80709L141.79194,15.087Z"/><polygon class="cls-1" points="181.213 20.54 181.213 7.731 172.331 20.54 170.568 20.54 161.687 7.731 161.687 20.54 159.07 20.54 159.07 4.772 162.709 4.772 171.45 17.315 180.191 4.772 183.83 4.772 183.83 20.54 181.213 20.54"/></svg>