<?xml version="1.0" encoding="utf-8"?>
<!-- Generator: Adobe Illustrator 26.2.1, SVG Export Plug-In . SVG Version: 6.00 Build 0)  -->
<svg version="1.1" id="Lager_1" xmlns="http://www.w3.org/2000/svg" xmlns:xlink="http://www.w3.org/1999/xlink" x="0px" y="0px"
	 viewBox="0 0 44 41.9" style="enable-background:new 0 0 44 41.9;" xml:space="preserve">
<style type="text/css">
	.st0{fill:#706F6F;}
	.st1{fill:#2EC6B3;}
</style>
<path class="st0" d="M54,26h1.1v8.4H54V26z"/>
<path class="st0" d="M60.8,26h1.7l7.7,7.4V26h1.1v8.4h-1.7L62,27v7.4h-1.1L60.8,26z"/>
<path class="st0" d="M76.9,26h1.7l7.7,7.4V26h1.1v8.4h-1.7L78,27v7.4h-1.1L76.9,26z"/>
<path class="st0" d="M92.8,29.1c0-2.1,0.7-3.1,3-3.1h4.8c2.3,0,3,1,3,3.1v2.3c0,2.1-0.7,3.1-3,3.1h-4.8c-2.3,0-3-1-3-3.1L92.8,29.1z
	 M102.4,28.6c0-1.5-0.9-1.8-2-1.8h-4.6c-1.1,0-2,0.3-2,1.8v3.1c0,1.5,0.9,1.8,2,1.8h4.6c1.1,0,2-0.3,2-1.8V28.6z"/>
<path class="st0" d="M108.2,26h1.3l4.1,7.4l4.1-7.4h1.3l-4.6,8.4h-1.4L108.2,26z"/>
<path class="st0" d="M126.7,26h1.4l5,8.4h-1.3l-1-1.8H124l-1,1.8h-1.3L126.7,26z M127.4,26.9l-2.8,4.8h5.6L127.4,26.9z"/>
<path class="st0" d="M140.3,26.9H136V26h9.6v0.9h-4.2v7.5h-1.1V26.9z"/>
<path class="st0" d="M150.5,26h1.1v8.4h-1.1V26z"/>
<path class="st0" d="M157.1,29.1c0-2.1,0.7-3.1,3-3.1h4.8c2.3,0,3,1,3,3.1v2.3c0,2.1-0.7,3.1-3,3.1h-4.8c-2.3,0-3-1-3-3.1V29.1z
	 M166.8,28.6c0-1.5-0.9-1.8-2-1.8h-4.6c-1.1,0-2,0.3-2,1.8v3.1c0,1.5,0.9,1.8,2,1.8h4.6c1.1,0,2-0.3,2-1.8V28.6z"/>
<path class="st0" d="M173.3,26h1.7l7.7,7.4V26h1.1v8.4h-1.7l-7.7-7.4v7.4h-1.1V26z"/>
<path class="st1" d="M30.2,34.8c0,0-0.8,0-0.8,0l0.6,0H9.7C6,34.8,2.5,33,0.3,30c0,0-0.1-0.1-0.1-0.2l0.2,1C1.2,34.1,5,40,10.5,40
	h23.7c1.7,0,3.4,0.7,4.6,1.9l-0.1-0.4C37,37,33.8,34.8,30.2,34.8z"/>
<path class="st1" d="M42.3,35.5c0-1.7-0.5-3.5-1.5-4.9c-1.5-2.4-4.2-3.9-7-3.8h-22c-3.7,0-6.8-3-6.8-6.8v-8.1c0-3.7,3-6.8,6.8-6.8
	h5.8v0H42c-0.5-3.2-1.7-5-9.7-5H11.8C5.3,0,0,5.3,0,11.8V20c0,6.5,5.3,11.8,11.8,11.8h20.3v0l0.1,0c3.9,0,7.6,2.8,9,8.3
	C41.9,38.6,42.3,37,42.3,35.5z"/>
<path class="st1" d="M10.1,21.5c1.2,1.4,3,2.1,4.8,2h21.7c1.6,0,3.1,0.6,4.2,1.6v-0.3c-0.2-3.5-3.1-6.3-6.6-6.3H12.6
	c-1.7,0-3.3-0.7-4.5-1.9v0.1C8.1,18.6,8.8,20.3,10.1,21.5z"/>
<path class="st0" d="M59.9,20.7c-2.9,0-5.9-0.5-5.9-4.1v-1.4h2.5v1.4c0,1.6,1.1,1.9,3.1,1.9H66c3,0,3.6-0.7,3.6-2.5
	c0-1.6-0.4-2.1-3-2.1h-3.9c-3.3,0-5.3-0.1-6.6-0.7c-1.4-0.6-2-1.8-2-4c0-3.8,2.4-4.5,6.6-4.5H65c2.6,0,4.2,0.3,5.3,1
	c1,0.8,1.5,2,1.4,3.3v0.8h-2.5l0-0.3c0-1.2-0.1-1.8-0.7-2.1c-0.7-0.4-2.3-0.5-4.7-0.5h-2.2c-4.1,0-5.1,0.2-5.1,2.4
	c0,1.6,0.3,2.1,3.5,2.1h6.1c4.1,0,6,1.2,6,4v1c0.2,1.5-0.7,3-2.1,3.7c-1.4,0.5-2.9,0.7-4.3,0.6L59.9,20.7z"/>
<polygon class="st0" points="82.3,20.5 82.3,7 74.6,7 74.6,4.8 92.6,4.8 92.6,7 84.9,7 84.9,20.5 "/>
<path class="st0" d="M110.6,20.5v-3.6c0-2.1-0.8-2.4-2.7-2.4h-9.8v6h-2.6V4.8h12.4c4.5,0,5.4,1.5,5.4,4.6v1.2
	c0.2,1.3-0.7,2.6-1.9,2.9c1.2,0.4,1.9,1.6,1.7,2.8v4.2L110.6,20.5z M107.7,12.3c2.5,0,3-0.7,3-1.9V9c0-1.3-0.3-2-3.5-2h-9.1v5.3
	H107.7z"/>
<polygon class="st0" points="118,20.5 118,4.8 133.5,4.8 133.5,7 120.6,7 120.6,11.3 133,11.3 133,13.5 120.6,13.5 120.6,18.3 
	133.5,18.3 133.5,20.5 "/>
<path class="st0" d="M154.2,20.5l-1.9-3.2h-11.9l-1.9,3.2h-3L145,4.8h2.9l9.4,15.8H154.2z M151,15.1l-4.6-7.8l-4.6,7.8L151,15.1z"/>
<polygon class="st0" points="181.2,20.5 181.2,7.7 172.3,20.5 170.6,20.5 161.7,7.7 161.7,20.5 159.1,20.5 159.1,4.8 162.7,4.8 
	171.4,17.3 180.2,4.8 183.8,4.8 183.8,20.5 "/>
</svg>
