<?xml version="1.0" encoding="utf-8"?>
<!-- Generator: Adobe Illustrator 24.0.3, SVG Export Plug-In . SVG Version: 6.00 Build 0)  -->
<svg version="1.1" id="Lager_1" xmlns="http://www.w3.org/2000/svg" xmlns:xlink="http://www.w3.org/1999/xlink" x="0px" y="0px"
	 viewBox="0 0 44.78 40.78" style="enable-background:new 0 0 44.78 40.78;" xml:space="preserve">
<style type="text/css">
	.st0{fill:#B3B3B3;}
</style>
<path class="st0" d="M42.64,8.29c-1.42,0.63-2.94,1.05-4.53,1.24c1.63-0.98,2.88-2.52,3.47-4.36c-1.53,0.9-3.21,1.56-5.01,1.91
	c-1.44-1.54-3.49-2.49-5.76-2.49c-4.36,0-7.89,3.53-7.89,7.89c0,0.62,0.07,1.22,0.2,1.8c-6.56-0.33-12.37-3.47-16.26-8.25
	C6.18,7.2,5.79,8.56,5.79,10c0,2.74,1.4,5.15,3.51,6.57c-1.29-0.04-2.51-0.4-3.57-0.99c0,0.03,0,0.07,0,0.1
	c0,3.82,2.72,7.01,6.33,7.74c-0.66,0.18-1.36,0.27-2.08,0.27c-0.51,0-1-0.05-1.48-0.14c1,3.13,3.92,5.42,7.37,5.48
	c-2.7,2.12-6.1,3.38-9.8,3.38c-0.64,0-1.26-0.04-1.88-0.11c3.49,2.24,7.64,3.55,12.09,3.55c14.51,0,22.45-12.02,22.45-22.45
	c0-0.34-0.01-0.68-0.02-1.02C40.24,11.26,41.58,9.87,42.64,8.29z"/>
</svg>
